<?xml version="1.0" encoding="UTF-8" standalone="no"?>
<!-- Created with Inkscape (http://www.inkscape.org/) -->

<svg
   width="26.458334mm"
   height="26.458334mm"
   viewBox="0 0 26.458334 26.458334"
   version="1.1"
   id="svg1934"
   inkscape:version="1.2.1 (9c6d41e, 2022-07-14)"
   sodipodi:docname="CSIRO-logo.svg"
   xmlns:inkscape="http://www.inkscape.org/namespaces/inkscape"
   xmlns:sodipodi="http://sodipodi.sourceforge.net/DTD/sodipodi-0.dtd"
   xmlns="http://www.w3.org/2000/svg"
   xmlns:svg="http://www.w3.org/2000/svg">
  <sodipodi:namedview
     id="namedview1936"
     pagecolor="#ffffff"
     bordercolor="#666666"
     borderopacity="1.0"
     inkscape:showpageshadow="2"
     inkscape:pageopacity="0.0"
     inkscape:pagecheckerboard="0"
     inkscape:deskcolor="#d1d1d1"
     inkscape:document-units="mm"
     showgrid="false"
     inkscape:zoom="0.2102413"
     inkscape:cx="-822.86401"
     inkscape:cy="104.64167"
     inkscape:window-width="1309"
     inkscape:window-height="456"
     inkscape:window-x="0"
     inkscape:window-y="25"
     inkscape:window-maximized="0"
     inkscape:current-layer="layer1" />
  <defs
     id="defs1931" />
  <g
     inkscape:label="Layer 1"
     inkscape:groupmode="layer"
     id="layer1"
     transform="translate(-67.3132,-77.381005)">
    <path
       class="cls-1"
       d="M 93.771534,90.610171 A 13.229167,13.229167 0 1 1 80.542374,77.381005 13.229167,13.229167 0 0 1 93.771534,90.610171 Z"
       id="path1393"
       style="fill:#00afdb;stroke-width:0.264583" />
    <path
       class="cls-2"
       d="m 73.118164,97.600461 a 2.0663958,2.0663958 0 0 1 -2.09815,-2.11667 v 0 a 2.079625,2.079625 0 0 1 2.13254,-2.11667 2.1166666,2.1166666 0 0 1 1.61396,0.63236 l -0.57414,0.65881 a 1.5160625,1.5160625 0 0 0 -1.05834,-0.46302 1.2144375,1.2144375 0 0 0 -1.18798,1.27529 v 0 a 1.2170833,1.2170833 0 0 0 1.18798,1.29911 1.476375,1.476375 0 0 0 1.07686,-0.4789 l 0.57414,0.57944 a 2.0928541,2.0928541 0 0 1 -1.67746,0.73025 z"
       id="path1395"
       style="fill:#ffffff;stroke-width:0.264583" />
    <path
       class="cls-2"
       d="m 77.118664,97.587231 a 2.6035,2.6035 0 0 1 -1.73567,-0.65352 l 0.52917,-0.63765 a 1.8785416,1.8785416 0 0 0 1.22237,0.49742 c 0.36777,0 0.59002,-0.14552 0.59002,-0.38629 v 0 c 0,-0.23019 -0.14023,-0.34661 -0.8255,-0.52917 -0.82285,-0.21167 -1.35731,-0.43921 -1.35731,-1.25148 v 0 c 0,-0.74083 0.59531,-1.23296 1.4314,-1.23296 a 2.3627291,2.3627291 0 0 1 1.52135,0.52917 l -0.46302,0.65617 a 1.9182291,1.9182291 0 0 0 -1.05833,-0.40482 c -0.34396,0 -0.52917,0.15875 -0.52917,0.35719 v 0 c 0,0.26458 0.17463,0.35454 0.88371,0.52917 0.83079,0.21696 1.29646,0.51594 1.29646,1.23031 v 0 c 0,0.81492 -0.61913,1.26735 -1.50284,1.26735 z"
       id="path1397"
       style="fill:#ffffff;stroke-width:0.264583" />
    <polygon
       class="cls-2"
       points="46.51,76.15 46.51,68.2 46.51,60.68 49.91,60.68 49.91,68.2 49.91,76.15 "
       id="polygon1399"
       style="fill:#ffffff"
       transform="matrix(0.26458333,0,0,0.26458333,67.313204,77.381005)" />
    <path
       class="cls-2"
       d="m 84.172454,94.843501 c 0,-0.38629 -0.26458,-0.58473 -0.70644,-0.58473 h -0.89429 v 1.16681 h 0.91281 c 0.43921,0 0.68792,-0.23283 0.68792,-0.57943 v 0 z m -0.0159,2.6961 -0.87841,-1.32027 h -0.70644 v 1.30969 h -0.89958 v -4.0931 h 1.8706 c 0.96308,0 1.54252,0.508 1.54252,1.34937 v 0 a 1.27,1.27 0 0 1 -0.87577,1.27 l 1.00013,1.4605 z"
       id="path1401"
       style="fill:#ffffff;stroke-width:0.264583" />
    <path
       class="cls-2"
       d="m 89.125454,95.483791 a 1.2435417,1.2435417 0 0 0 -1.2409,-1.28587 1.2250208,1.2250208 0 0 0 -1.22766,1.27529 v 0 a 1.2435417,1.2435417 0 0 0 1.24089,1.28587 1.2250208,1.2250208 0 0 0 1.22767,-1.27529 z m -1.2409,2.11667 a 2.0955,2.0955 0 0 1 -2.16958,-2.11667 v 0 a 2.174875,2.174875 0 0 1 4.34975,0 v 0 a 2.1166666,2.1166666 0 0 1 -2.18017,2.11667 z"
       id="path1403-55"
       style="fill:#ffffff;stroke-width:0.264583" />
    <path
       class="cls-2"
       d="m 84.495244,91.345711 a 0.70908332,0.70908332 0 1 1 -0.70908,-0.70909 0.70908332,0.70908332 0 0 1 0.70908,0.70909 z"
       id="path1405"
       style="fill:#ffffff;stroke-width:0.264583" />
    <path
       class="cls-2"
       d="m 81.600704,82.445125 a 0.65616666,0.65616666 0 0 0 -0.65617,0.65617 v 5.619746 a 0.66146,0.66146 0 0 0 1.32292,0 v -5.619746 a 0.65616666,0.65616666 0 0 0 -0.66675,-0.65617 z"
       id="path1407"
       style="fill:#ffffff;stroke-width:0.264583" />
    <path
       class="cls-2"
       d="m 77.192744,81.815425 a 0.65616666,0.65616666 0 0 0 -0.65617,0.65616 v 4.987396 a 0.66146,0.66146 0 1 0 1.32292,0 v -4.987396 a 0.65616666,0.65616666 0 0 0 -0.65617,-0.65616 z"
       id="path1409"
       style="fill:#ffffff;stroke-width:0.264583" />
    <path
       class="cls-2"
       d="m 85.984854,83.707191 a 0.65616666,0.65616666 0 0 0 -0.65617,0.65616 v 3.72798 a 0.66146,0.66146 0 0 0 1.32292,0 v -3.72798 a 0.65616666,0.65616666 0 0 0 -0.65617,-0.65616 z"
       id="path1411"
       style="fill:#ffffff;stroke-width:0.264583" />
    <path
       class="cls-2"
       d="m 74.986124,83.707191 a 0.65616666,0.65616666 0 0 0 -0.65617,0.65616 v 3.72798 a 0.66146,0.66146 0 1 0 1.32292,0 v -3.72798 a 0.65616666,0.65616666 0 0 0 -0.66675,-0.65616 z"
       id="path1413"
       style="fill:#ffffff;stroke-width:0.264583" />
    <path
       class="cls-2"
       d="m 83.786164,80.556005 a 0.65616666,0.65616666 0 0 0 -0.65617,0.65617 v 8.138576 a 0.66146,0.66146 0 1 0 1.32292,0 v -8.138576 a 0.65616666,0.65616666 0 0 0 -0.66675,-0.65617 z"
       id="path1415"
       style="fill:#ffffff;stroke-width:0.264583" />
    <path
       class="cls-2"
       d="m 79.391434,80.556005 a 0.65616666,0.65616666 0 0 0 -0.65617,0.65617 v 5.617096 a 0.66146,0.66146 0 0 0 1.32292,0 v -5.617096 a 0.65616666,0.65616666 0 0 0 -0.66675,-0.65617 z"
       id="path1417"
       style="fill:#ffffff;stroke-width:0.264583" />
  </g>
</svg>
