<?xml version="1.0" encoding="UTF-8" standalone="no"?>
<!-- Created with Inkscape (http://www.inkscape.org/) -->

<svg
   width="56.080902mm"
   height="26.458334mm"
   viewBox="0 0 56.080902 26.458334"
   version="1.1"
   id="svg1934"
   inkscape:version="1.2.1 (9c6d41e, 2022-07-14)"
   sodipodi:docname="CSIRO-Data61-logo2.svg"
   xmlns:inkscape="http://www.inkscape.org/namespaces/inkscape"
   xmlns:sodipodi="http://sodipodi.sourceforge.net/DTD/sodipodi-0.dtd"
   xmlns="http://www.w3.org/2000/svg"
   xmlns:svg="http://www.w3.org/2000/svg">
  <sodipodi:namedview
     id="namedview1936"
     pagecolor="#ffffff"
     bordercolor="#666666"
     borderopacity="1.0"
     inkscape:showpageshadow="2"
     inkscape:pageopacity="0.0"
     inkscape:pagecheckerboard="0"
     inkscape:deskcolor="#d1d1d1"
     inkscape:document-units="mm"
     showgrid="false"
     inkscape:zoom="0.84096521"
     inkscape:cx="-160.52983"
     inkscape:cy="79.670359"
     inkscape:window-width="1429"
     inkscape:window-height="832"
     inkscape:window-x="0"
     inkscape:window-y="25"
     inkscape:window-maximized="0"
     inkscape:current-layer="layer1" />
  <defs
     id="defs1931" />
  <g
     inkscape:label="Layer 1"
     inkscape:groupmode="layer"
     id="layer1"
     transform="translate(-67.3132,-77.381005)">
    <g
       id="g3333">
      <path
         class="cls-1"
         d="M 93.771534,90.610171 A 13.229167,13.229167 0 1 1 80.542374,77.381005 13.229167,13.229167 0 0 1 93.771534,90.610171 Z"
         id="path1393"
         style="fill:#00afdb;stroke-width:0.264583" />
      <path
         class="cls-2"
         d="m 73.118164,97.600461 a 2.0663958,2.0663958 0 0 1 -2.09815,-2.11667 v 0 a 2.079625,2.079625 0 0 1 2.13254,-2.11667 2.1166666,2.1166666 0 0 1 1.61396,0.63236 l -0.57414,0.65881 a 1.5160625,1.5160625 0 0 0 -1.05834,-0.46302 1.2144375,1.2144375 0 0 0 -1.18798,1.27529 v 0 a 1.2170833,1.2170833 0 0 0 1.18798,1.29911 1.476375,1.476375 0 0 0 1.07686,-0.4789 l 0.57414,0.57944 a 2.0928541,2.0928541 0 0 1 -1.67746,0.73025 z"
         id="path1395"
         style="fill:#ffffff;stroke-width:0.264583" />
      <path
         class="cls-2"
         d="m 77.118664,97.587231 a 2.6035,2.6035 0 0 1 -1.73567,-0.65352 l 0.52917,-0.63765 a 1.8785416,1.8785416 0 0 0 1.22237,0.49742 c 0.36777,0 0.59002,-0.14552 0.59002,-0.38629 v 0 c 0,-0.23019 -0.14023,-0.34661 -0.8255,-0.52917 -0.82285,-0.21167 -1.35731,-0.43921 -1.35731,-1.25148 v 0 c 0,-0.74083 0.59531,-1.23296 1.4314,-1.23296 a 2.3627291,2.3627291 0 0 1 1.52135,0.52917 l -0.46302,0.65617 a 1.9182291,1.9182291 0 0 0 -1.05833,-0.40482 c -0.34396,0 -0.52917,0.15875 -0.52917,0.35719 v 0 c 0,0.26458 0.17463,0.35454 0.88371,0.52917 0.83079,0.21696 1.29646,0.51594 1.29646,1.23031 v 0 c 0,0.81492 -0.61913,1.26735 -1.50284,1.26735 z"
         id="path1397"
         style="fill:#ffffff;stroke-width:0.264583" />
      <polygon
         class="cls-2"
         points="49.91,60.68 49.91,68.2 49.91,76.15 46.51,76.15 46.51,68.2 46.51,60.68 "
         id="polygon1399"
         style="fill:#ffffff"
         transform="matrix(0.26458333,0,0,0.26458333,67.313204,77.381005)" />
      <path
         class="cls-2"
         d="m 84.172454,94.843501 c 0,-0.38629 -0.26458,-0.58473 -0.70644,-0.58473 h -0.89429 v 1.16681 h 0.91281 c 0.43921,0 0.68792,-0.23283 0.68792,-0.57943 v 0 z m -0.0159,2.6961 -0.87841,-1.32027 h -0.70644 v 1.30969 h -0.89958 v -4.0931 h 1.8706 c 0.96308,0 1.54252,0.508 1.54252,1.34937 v 0 a 1.27,1.27 0 0 1 -0.87577,1.27 l 1.00013,1.4605 z"
         id="path1401"
         style="fill:#ffffff;stroke-width:0.264583" />
      <path
         class="cls-2"
         d="m 89.125454,95.483791 a 1.2435417,1.2435417 0 0 0 -1.2409,-1.28587 1.2250208,1.2250208 0 0 0 -1.22766,1.27529 v 0 a 1.2435417,1.2435417 0 0 0 1.24089,1.28587 1.2250208,1.2250208 0 0 0 1.22767,-1.27529 z m -1.2409,2.11667 a 2.0955,2.0955 0 0 1 -2.16958,-2.11667 v 0 a 2.174875,2.174875 0 0 1 4.34975,0 v 0 a 2.1166666,2.1166666 0 0 1 -2.18017,2.11667 z"
         id="path1403-55"
         style="fill:#ffffff;stroke-width:0.264583" />
      <path
         class="cls-2"
         d="m 84.495244,91.345711 a 0.70908332,0.70908332 0 1 1 -0.70908,-0.70909 0.70908332,0.70908332 0 0 1 0.70908,0.70909 z"
         id="path1405"
         style="fill:#ffffff;stroke-width:0.264583" />
      <path
         class="cls-2"
         d="m 81.600704,82.445125 a 0.65616666,0.65616666 0 0 0 -0.65617,0.65617 v 5.619746 a 0.66146,0.66146 0 0 0 1.32292,0 v -5.619746 a 0.65616666,0.65616666 0 0 0 -0.66675,-0.65617 z"
         id="path1407"
         style="fill:#ffffff;stroke-width:0.264583" />
      <path
         class="cls-2"
         d="m 77.192744,81.815425 a 0.65616666,0.65616666 0 0 0 -0.65617,0.65616 v 4.987396 a 0.66146,0.66146 0 1 0 1.32292,0 v -4.987396 a 0.65616666,0.65616666 0 0 0 -0.65617,-0.65616 z"
         id="path1409"
         style="fill:#ffffff;stroke-width:0.264583" />
      <path
         class="cls-2"
         d="m 85.984854,83.707191 a 0.65616666,0.65616666 0 0 0 -0.65617,0.65616 v 3.72798 a 0.66146,0.66146 0 0 0 1.32292,0 v -3.72798 a 0.65616666,0.65616666 0 0 0 -0.65617,-0.65616 z"
         id="path1411"
         style="fill:#ffffff;stroke-width:0.264583" />
      <path
         class="cls-2"
         d="m 74.986124,83.707191 a 0.65616666,0.65616666 0 0 0 -0.65617,0.65616 v 3.72798 a 0.66146,0.66146 0 1 0 1.32292,0 v -3.72798 a 0.65616666,0.65616666 0 0 0 -0.66675,-0.65616 z"
         id="path1413"
         style="fill:#ffffff;stroke-width:0.264583" />
      <path
         class="cls-2"
         d="m 83.786164,80.556005 a 0.65616666,0.65616666 0 0 0 -0.65617,0.65617 v 8.138576 a 0.66146,0.66146 0 1 0 1.32292,0 v -8.138576 a 0.65616666,0.65616666 0 0 0 -0.66675,-0.65617 z"
         id="path1415"
         style="fill:#ffffff;stroke-width:0.264583" />
      <path
         class="cls-2"
         d="m 79.391434,80.556005 a 0.65616666,0.65616666 0 0 0 -0.65617,0.65617 v 5.617096 a 0.66146,0.66146 0 0 0 1.32292,0 v -5.617096 a 0.65616666,0.65616666 0 0 0 -0.66675,-0.65617 z"
         id="path1417"
         style="fill:#ffffff;stroke-width:0.264583" />
    </g>
    <g
       id="g3318"
       transform="translate(0,0.01517993)">
      <g
         id="g967"
         transform="matrix(0.08449362,0,0,-0.07869747,105.28515,88.872542)"
         style="fill:#00afdb;fill-opacity:1">
        <path
           d="M 0,0 C 0,-3.323 -2.032,-5.353 -5.356,-5.353 H -25.024 V 44.142 H -5.356 C -2.032,44.142 0,42.11 0,38.787 Z m -3.786,50.146 h -26.055 c -0.91,0 -1.649,-0.738 -1.649,-1.649 V -9.708 c 0,-0.91 0.739,-1.648 1.649,-1.648 h 26.055 c 5.911,0 10.25,4.341 10.25,10.248 v 41.002 c 0,6.001 -4.339,10.252 -10.25,10.252"
           style="fill:#00afdb;fill-opacity:1;fill-rule:nonzero;stroke:none"
           id="path969" />
      </g>
      <g
         id="g971"
         transform="matrix(0.08449362,0,0,-0.07869747,108.0041,91.414746)"
         style="fill:#00afdb;fill-opacity:1">
        <path
           d="m 0,0 h -19.722 c -0.911,0 -1.649,-0.739 -1.649,-1.649 v -6.4 c 0,-0.911 0.738,-1.648 1.649,-1.648 H -8.97 v -50.156 c 0,-0.91 0.738,-1.649 1.648,-1.649 H 0 c 0.91,0 1.649,0.739 1.649,1.649 V -1.649 C 1.649,-0.739 0.91,0 0,0"
           style="fill:#00afdb;fill-opacity:1;fill-rule:nonzero;stroke:none"
           id="path973" />
      </g>
      <g
         id="g975"
         transform="matrix(0.08449362,0,0,-0.07869747,104.80138,95.302796)"
         style="fill:#00afdb;fill-opacity:1">
        <path
           d="m 0,0 c 0,-1.385 -1.108,-2.402 -2.494,-2.402 h -10.157 c -1.386,0 -2.494,1.017 -2.494,2.402 v 8.22 c 0,1.384 0.74,2.492 2.494,3.046 2.216,0.74 7.849,1.849 10.157,1.849 1.571,0 2.494,-1.018 2.494,-2.403 z m 0.831,23.176 c -4.525,0 -10.989,-1.108 -15.976,-2.676 v 16.808 c 0,1.385 1.108,2.4 2.494,2.4 H 5.118 c 0.911,0 1.65,0.738 1.65,1.648 v 6.4 c 0,0.91 -0.739,1.649 -1.65,1.649 h -21.094 c -5.449,0 -9.788,-4.342 -9.788,-9.697 v -42.11 c 0,-5.353 4.248,-9.695 9.604,-9.695 H 0.831 c 5.449,0 9.788,4.342 9.788,9.695 v 15.884 c 0,5.356 -3.509,9.694 -9.788,9.694"
           style="fill:#00afdb;fill-opacity:1;fill-rule:nonzero;stroke:none"
           id="path977" />
      </g>
      <g
         id="g979"
         transform="matrix(0.08449362,0,0,-0.07869747,113.73158,84.926192)"
         style="fill:#00afdb;fill-opacity:1">
        <path
           d="m 0,0 h -39.826 c -0.91,0 -1.649,-0.739 -1.649,-1.649 v -2.705 c 0,-0.912 0.739,-1.649 1.649,-1.649 h 16.727 v -53.85 c 0,-0.91 0.738,-1.649 1.65,-1.649 h 3.165 c 0.911,0 1.65,0.739 1.65,1.649 v 53.85 H 0 c 0.911,0 1.649,0.737 1.649,1.649 v 2.705 C 1.649,-0.739 0.911,0 0,0"
           style="fill:#00afdb;fill-opacity:1;fill-rule:nonzero;stroke:none"
           id="path981" />
      </g>
      <g
         id="g983"
         transform="matrix(0.08449362,0,0,-0.07869747,107.6908,88.051332)"
         style="fill:#00afdb;fill-opacity:1">
        <path
           d="M 0,0 10.343,31.676 20.593,0 Z m 33.874,-19.612 v 0 L 13.77,38.609 c -0.227,0.639 -0.839,1.102 -1.557,1.102 H 8.469 c -0.716,0 -1.327,-0.463 -1.554,-1.102 l -20.1,-58.211 c -0.06,-0.171 -0.101,-0.349 -0.101,-0.54 0,-0.911 0.739,-1.65 1.649,-1.65 h 3.065 c 0.707,0 1.307,0.452 1.541,1.078 l 0.006,-0.002 4.992,14.809 h 24.565 l 5.148,-14.756 v 0.002 c 0.218,-0.653 0.834,-1.131 1.561,-1.131 h 3.075 c 0.91,0 1.649,0.739 1.649,1.65 0,0.188 -0.033,0.361 -0.091,0.53"
           style="fill:#00afdb;fill-opacity:1;fill-rule:nonzero;stroke:none"
           id="path985" />
      </g>
      <g
         id="g987"
         transform="matrix(0.08449362,0,0,-0.07869747,114.71776,88.051332)"
         style="fill:#00afdb;fill-opacity:1">
        <path
           d="M 0,0 10.343,31.676 20.592,0 Z m 33.874,-19.612 v 0 L 13.77,38.609 c -0.227,0.639 -0.839,1.102 -1.557,1.102 H 8.469 c -0.717,0 -1.327,-0.463 -1.554,-1.102 l -20.285,-58.11 0.184,-0.101 c -0.06,-0.171 -0.1,-0.349 -0.1,-0.54 0,-0.911 0.739,-1.65 1.649,-1.65 h 3.064 c 0.708,0 1.307,0.452 1.542,1.078 l 0.005,-0.002 4.993,14.809 h 24.564 l 5.148,-14.756 v 0.002 c 0.219,-0.653 0.835,-1.131 1.561,-1.131 h 3.076 c 0.91,0 1.649,0.739 1.649,1.65 0,0.188 -0.033,0.361 -0.091,0.53"
           style="fill:#00afdb;fill-opacity:1;fill-rule:nonzero;stroke:none"
           id="path989" />
      </g>
      <g
         id="g991"
         transform="matrix(0.08449362,0,0,-0.07869747,123.29178,85.679572)"
         style="fill:#00afdb;fill-opacity:1">
        <path
           d="M 0,0 H 0.001 0 0.004 l -5.9,3.407 c -0.378,0.222 -0.818,0.348 -1.286,0.348 -0.474,0 -0.92,-0.131 -1.301,-0.356 L -14.367,0 h 0.003 c -0.71,-0.451 -1.21,-1.212 -1.21,-2.114 V -122.79 c 0,-0.904 0.5,-1.664 1.21,-2.114 h -10e-4 10e-4 -0.003 l 5.899,-3.408 c 0.378,-0.221 0.818,-0.347 1.286,-0.347 0.474,0 0.92,0.13 1.301,0.356 l 5.885,3.399 H 0 c 0.709,0.45 1.211,1.21 1.211,2.114 V -2.114 C 1.211,-1.212 0.711,-0.451 0,0"
           style="fill:#00afdb;fill-opacity:1;fill-rule:nonzero;stroke:none"
           id="path993" />
      </g>
      <g
         id="g995"
         transform="matrix(0.08449362,0,0,-0.07869747,98.93616,82.412742)"
         style="fill:#00afdb;fill-opacity:1">
        <path
           d="M 0,0 V 0.001 0 L -0.002,0.004 V -6.81 c -0.004,-0.438 0.107,-0.881 0.341,-1.287 0.237,-0.411 0.573,-0.732 0.96,-0.948 l 5.884,-3.398 -10e-4,0.004 v -10e-4 10e-4 c 0.746,-0.39 1.654,-0.444 2.436,0.008 l 104.509,60.337 c 0.782,0.452 1.191,1.266 1.226,2.106 l 0.002,-0.002 v 6.812 c 0.004,0.438 -0.107,0.883 -0.341,1.289 -0.237,0.41 -0.574,0.73 -0.96,0.947 l -5.885,3.397 0.002,-0.004 -0.001,0.002 0.001,-0.002 c -0.746,0.39 -1.654,0.444 -2.436,-0.008 C 93.96,55.645 1.256,2.123 1.226,2.106 0.443,1.654 0.035,0.84 0,0"
           style="fill:#00afdb;fill-opacity:1;fill-rule:nonzero;stroke:none"
           id="path997" />
      </g>
      <g
         id="g999"
         transform="matrix(0.08449362,0,0,-0.07869747,99.543001,97.797846)"
         style="fill:#00afdb;fill-opacity:1">
        <path
           d="M 0,0 V 0.001 0 L 0.001,0.004 -5.9,-3.403 C -6.28,-3.619 -6.609,-3.936 -6.843,-4.342 -7.081,-4.753 -7.19,-5.204 -7.184,-5.647 v -6.796 l 0.002,0.004 v -10e-4 10e-4 c 0.035,-0.84 0.444,-1.654 1.226,-2.106 L 98.553,-74.883 c 0.782,-0.451 1.69,-0.398 2.436,-0.009 h -0.001 0.001 l -0.002,-0.003 5.901,3.406 c 0.38,0.216 0.71,0.533 0.944,0.939 0.237,0.411 0.347,0.862 0.341,1.305 l -0.001,6.796 -10e-4,-0.004 h -0.001 c -0.035,0.841 -0.442,1.654 -1.225,2.106 C 95.171,-53.549 2.467,-0.027 2.436,-0.009 1.654,0.442 0.746,0.389 0,0"
           style="fill:#00afdb;fill-opacity:1;fill-rule:nonzero;stroke:none"
           id="path1001" />
      </g>
      <g
         id="g1003"
         transform="matrix(0.08449362,0,0,-0.07869747,111.51982,102.71306)"
         style="fill:#00afdb;fill-opacity:1">
        <path
           d="M 0,0 V 0.001 0 L -0.002,0.004 V -6.81 c -0.004,-0.438 0.107,-0.881 0.341,-1.287 0.237,-0.411 0.573,-0.732 0.96,-0.948 l 5.884,-3.398 -10e-4,0.004 v -10e-4 10e-4 c 0.746,-0.39 1.654,-0.444 2.436,0.008 l 104.509,60.338 c 0.782,0.451 1.191,1.265 1.226,2.105 l 0.002,-0.002 v 6.812 c 0.004,0.438 -0.107,0.883 -0.341,1.289 -0.236,0.41 -0.574,0.73 -0.96,0.947 l -5.885,3.397 0.002,-0.003 -0.001,0.001 0.001,-0.001 c -0.746,0.389 -1.654,0.443 -2.436,-0.009 C 93.96,55.645 1.256,2.123 1.226,2.106 0.443,1.654 0.035,0.84 0,0"
           style="fill:#00afdb;fill-opacity:1;fill-rule:nonzero;stroke:none"
           id="path1005" />
      </g>
      <g
         id="g1007"
         transform="matrix(0.08449362,0,0,-0.07869747,98.124472,85.679572)"
         style="fill:#00afdb;fill-opacity:1">
        <path
           d="M 0,0 H 0.001 0 0.004 l -5.9,3.407 c -0.378,0.222 -0.818,0.348 -1.286,0.348 -0.474,0 -0.921,-0.131 -1.301,-0.356 L -14.367,0 h 0.003 c -0.71,-0.451 -1.21,-1.212 -1.21,-2.114 V -122.79 c 0,-0.904 0.5,-1.664 1.21,-2.114 h -10e-4 10e-4 -0.003 l 5.899,-3.408 c 0.378,-0.221 0.818,-0.347 1.286,-0.347 0.474,0 0.92,0.13 1.301,0.356 l 5.885,3.399 H 0 c 0.709,0.45 1.211,1.21 1.211,2.114 V -2.114 C 1.211,-1.212 0.711,-0.451 0,0"
           style="fill:#00afdb;fill-opacity:1;fill-rule:nonzero;stroke:none"
           id="path1009" />
      </g>
      <g
         id="g1011"
         transform="matrix(0.08449362,0,0,-0.07869747,123.29178,85.679562)"
         style="fill:#00afdb;fill-opacity:1">
        <path
           d="M 0,0 H 0.001 0 0.004 l -5.9,3.407 c -0.378,0.222 -0.818,0.348 -1.286,0.348 -0.474,0 -0.921,-0.131 -1.301,-0.356 L -14.367,0 h 0.003 c -0.71,-0.451 -1.21,-1.212 -1.21,-2.114 V -122.79 c 0,-0.904 0.5,-1.664 1.21,-2.114 h -10e-4 10e-4 -0.003 l 5.899,-3.408 c 0.378,-0.221 0.818,-0.348 1.286,-0.348 0.474,0 0.92,0.131 1.3,0.357 l 5.886,3.399 H 0 c 0.709,0.45 1.211,1.21 1.211,2.114 V -2.114 C 1.211,-1.212 0.711,-0.451 0,0"
           style="fill:#00afdb;fill-opacity:1;fill-rule:nonzero;stroke:none"
           id="path1013" />
      </g>
      <g
         id="g1015"
         transform="matrix(0.08449362,0,0,-0.07869747,98.124472,85.679562)"
         style="fill:#00afdb;fill-opacity:1">
        <path
           d="M 0,0 H 0.001 0 0.004 l -5.9,3.407 c -0.378,0.222 -0.818,0.348 -1.286,0.348 -0.474,0 -0.921,-0.131 -1.301,-0.356 L -14.367,0 h 0.003 c -0.71,-0.451 -1.21,-1.212 -1.21,-2.114 V -122.79 c 0,-0.904 0.5,-1.664 1.21,-2.114 h -10e-4 10e-4 -0.003 l 5.899,-3.408 c 0.378,-0.221 0.818,-0.348 1.286,-0.348 0.474,0 0.92,0.131 1.301,0.357 l 5.885,3.399 H 0 c 0.709,0.45 1.211,1.21 1.211,2.114 V -2.114 C 1.211,-1.212 0.711,-0.451 0,0"
           style="fill:#00afdb;fill-opacity:1;fill-rule:nonzero;stroke:none"
           id="path1017" />
      </g>
    </g>
  </g>
</svg>
