<?xml version="1.0" encoding="UTF-8" standalone="no"?>
<!-- Created with Inkscape (http://www.inkscape.org/) -->

<svg
   width="26.585537mm"
   height="26.243069mm"
   viewBox="0 0 26.585537 26.243069"
   version="1.1"
   id="svg2508"
   sodipodi:docname="Data61-logo.svg"
   inkscape:version="1.2.1 (9c6d41e, 2022-07-14)"
   xmlns:inkscape="http://www.inkscape.org/namespaces/inkscape"
   xmlns:sodipodi="http://sodipodi.sourceforge.net/DTD/sodipodi-0.dtd"
   xmlns="http://www.w3.org/2000/svg"
   xmlns:svg="http://www.w3.org/2000/svg">
  <sodipodi:namedview
     id="namedview2510"
     pagecolor="#ffffff"
     bordercolor="#666666"
     borderopacity="1.0"
     inkscape:showpageshadow="2"
     inkscape:pageopacity="0.0"
     inkscape:pagecheckerboard="0"
     inkscape:deskcolor="#d1d1d1"
     inkscape:document-units="mm"
     showgrid="false"
     inkscape:zoom="0.2102413"
     inkscape:cx="159.34072"
     inkscape:cy="152.20606"
     inkscape:window-width="1309"
     inkscape:window-height="456"
     inkscape:window-x="0"
     inkscape:window-y="25"
     inkscape:window-maximized="0"
     inkscape:current-layer="layer1" />
  <defs
     id="defs2505" />
  <g
     inkscape:label="Layer 1"
     inkscape:groupmode="layer"
     id="layer1"
     transform="translate(-63.474181,-107.69202)">
    <g
       id="g967"
       transform="matrix(0.08449362,0,0,-0.07869747,71.950768,119.09111)"
       style="fill:#00afdb;fill-opacity:1">
      <path
         d="M 0,0 C 0,-3.323 -2.032,-5.353 -5.356,-5.353 H -25.024 V 44.142 H -5.356 C -2.032,44.142 0,42.11 0,38.787 Z m -3.786,50.146 h -26.055 c -0.91,0 -1.649,-0.738 -1.649,-1.649 V -9.708 c 0,-0.91 0.739,-1.648 1.649,-1.648 h 26.055 c 5.911,0 10.25,4.341 10.25,10.248 v 41.002 c 0,6.001 -4.339,10.252 -10.25,10.252"
         style="fill:#00afdb;fill-opacity:1;fill-rule:nonzero;stroke:none"
         id="path969" />
    </g>
    <g
       id="g971"
       transform="matrix(0.08449362,0,0,-0.07869747,74.669713,121.63331)"
       style="fill:#00afdb;fill-opacity:1">
      <path
         d="m 0,0 h -19.722 c -0.911,0 -1.649,-0.739 -1.649,-1.649 v -6.4 c 0,-0.911 0.738,-1.648 1.649,-1.648 H -8.97 v -50.156 c 0,-0.91 0.738,-1.649 1.648,-1.649 H 0 c 0.91,0 1.649,0.739 1.649,1.649 V -1.649 C 1.649,-0.739 0.91,0 0,0"
         style="fill:#00afdb;fill-opacity:1;fill-rule:nonzero;stroke:none"
         id="path973" />
    </g>
    <g
       id="g975"
       transform="matrix(0.08449362,0,0,-0.07869747,71.46699,125.52136)"
       style="fill:#00afdb;fill-opacity:1">
      <path
         d="m 0,0 c 0,-1.385 -1.108,-2.402 -2.494,-2.402 h -10.157 c -1.386,0 -2.494,1.017 -2.494,2.402 v 8.22 c 0,1.384 0.74,2.492 2.494,3.046 2.216,0.74 7.849,1.849 10.157,1.849 1.571,0 2.494,-1.018 2.494,-2.403 z m 0.831,23.176 c -4.525,0 -10.989,-1.108 -15.976,-2.676 v 16.808 c 0,1.385 1.108,2.4 2.494,2.4 H 5.118 c 0.911,0 1.65,0.738 1.65,1.648 v 6.4 c 0,0.91 -0.739,1.649 -1.65,1.649 h -21.094 c -5.449,0 -9.788,-4.342 -9.788,-9.697 v -42.11 c 0,-5.353 4.248,-9.695 9.604,-9.695 H 0.831 c 5.449,0 9.788,4.342 9.788,9.695 v 15.884 c 0,5.356 -3.509,9.694 -9.788,9.694"
         style="fill:#00afdb;fill-opacity:1;fill-rule:nonzero;stroke:none"
         id="path977" />
    </g>
    <g
       id="g979"
       transform="matrix(0.08449362,0,0,-0.07869747,80.397196,115.14476)"
       style="fill:#00afdb;fill-opacity:1">
      <path
         d="m 0,0 h -39.826 c -0.91,0 -1.649,-0.739 -1.649,-1.649 v -2.705 c 0,-0.912 0.739,-1.649 1.649,-1.649 h 16.727 v -53.85 c 0,-0.91 0.738,-1.649 1.65,-1.649 h 3.165 c 0.911,0 1.65,0.739 1.65,1.649 v 53.85 H 0 c 0.911,0 1.649,0.737 1.649,1.649 v 2.705 C 1.649,-0.739 0.911,0 0,0"
         style="fill:#00afdb;fill-opacity:1;fill-rule:nonzero;stroke:none"
         id="path981" />
    </g>
    <g
       id="g983"
       transform="matrix(0.08449362,0,0,-0.07869747,74.356418,118.2699)"
       style="fill:#00afdb;fill-opacity:1">
      <path
         d="M 0,0 10.343,31.676 20.593,0 Z m 33.874,-19.612 v 0 L 13.77,38.609 c -0.227,0.639 -0.839,1.102 -1.557,1.102 H 8.469 c -0.716,0 -1.327,-0.463 -1.554,-1.102 l -20.1,-58.211 c -0.06,-0.171 -0.101,-0.349 -0.101,-0.54 0,-0.911 0.739,-1.65 1.649,-1.65 h 3.065 c 0.707,0 1.307,0.452 1.541,1.078 l 0.006,-0.002 4.992,14.809 h 24.565 l 5.148,-14.756 v 0.002 c 0.218,-0.653 0.834,-1.131 1.561,-1.131 h 3.075 c 0.91,0 1.649,0.739 1.649,1.65 0,0.188 -0.033,0.361 -0.091,0.53"
         style="fill:#00afdb;fill-opacity:1;fill-rule:nonzero;stroke:none"
         id="path985" />
    </g>
    <g
       id="g987"
       transform="matrix(0.08449362,0,0,-0.07869747,81.383373,118.2699)"
       style="fill:#00afdb;fill-opacity:1">
      <path
         d="M 0,0 10.343,31.676 20.592,0 Z m 33.874,-19.612 v 0 L 13.77,38.609 c -0.227,0.639 -0.839,1.102 -1.557,1.102 H 8.469 c -0.717,0 -1.327,-0.463 -1.554,-1.102 l -20.285,-58.11 0.184,-0.101 c -0.06,-0.171 -0.1,-0.349 -0.1,-0.54 0,-0.911 0.739,-1.65 1.649,-1.65 h 3.064 c 0.708,0 1.307,0.452 1.542,1.078 l 0.005,-0.002 4.993,14.809 h 24.564 l 5.148,-14.756 v 0.002 c 0.219,-0.653 0.835,-1.131 1.561,-1.131 h 3.076 c 0.91,0 1.649,0.739 1.649,1.65 0,0.188 -0.033,0.361 -0.091,0.53"
         style="fill:#00afdb;fill-opacity:1;fill-rule:nonzero;stroke:none"
         id="path989" />
    </g>
    <g
       id="g991"
       transform="matrix(0.08449362,0,0,-0.07869747,89.957396,115.89814)"
       style="fill:#00afdb;fill-opacity:1">
      <path
         d="M 0,0 H 0.001 0 0.004 l -5.9,3.407 c -0.378,0.222 -0.818,0.348 -1.286,0.348 -0.474,0 -0.92,-0.131 -1.301,-0.356 L -14.367,0 h 0.003 c -0.71,-0.451 -1.21,-1.212 -1.21,-2.114 V -122.79 c 0,-0.904 0.5,-1.664 1.21,-2.114 h -10e-4 10e-4 -0.003 l 5.899,-3.408 c 0.378,-0.221 0.818,-0.347 1.286,-0.347 0.474,0 0.92,0.13 1.301,0.356 l 5.885,3.399 H 0 c 0.709,0.45 1.211,1.21 1.211,2.114 V -2.114 C 1.211,-1.212 0.711,-0.451 0,0"
         style="fill:#00afdb;fill-opacity:1;fill-rule:nonzero;stroke:none"
         id="path993" />
    </g>
    <g
       id="g995"
       transform="matrix(0.08449362,0,0,-0.07869747,65.601773,112.63131)"
       style="fill:#00afdb;fill-opacity:1">
      <path
         d="M 0,0 V 0.001 0 L -0.002,0.004 V -6.81 c -0.004,-0.438 0.107,-0.881 0.341,-1.287 0.237,-0.411 0.573,-0.732 0.96,-0.948 l 5.884,-3.398 -10e-4,0.004 v -10e-4 10e-4 c 0.746,-0.39 1.654,-0.444 2.436,0.008 l 104.509,60.337 c 0.782,0.452 1.191,1.266 1.226,2.106 l 0.002,-0.002 v 6.812 c 0.004,0.438 -0.107,0.883 -0.341,1.289 -0.237,0.41 -0.574,0.73 -0.96,0.947 l -5.885,3.397 0.002,-0.004 -0.001,0.002 0.001,-0.002 c -0.746,0.39 -1.654,0.444 -2.436,-0.008 C 93.96,55.645 1.256,2.123 1.226,2.106 0.443,1.654 0.035,0.84 0,0"
         style="fill:#00afdb;fill-opacity:1;fill-rule:nonzero;stroke:none"
         id="path997" />
    </g>
    <g
       id="g999"
       transform="matrix(0.08449362,0,0,-0.07869747,66.208614,128.01641)"
       style="fill:#00afdb;fill-opacity:1">
      <path
         d="M 0,0 V 0.001 0 L 0.001,0.004 -5.9,-3.403 C -6.28,-3.619 -6.609,-3.936 -6.843,-4.342 -7.081,-4.753 -7.19,-5.204 -7.184,-5.647 v -6.796 l 0.002,0.004 v -10e-4 10e-4 c 0.035,-0.84 0.444,-1.654 1.226,-2.106 L 98.553,-74.883 c 0.782,-0.451 1.69,-0.398 2.436,-0.009 h -0.001 0.001 l -0.002,-0.003 5.901,3.406 c 0.38,0.216 0.71,0.533 0.944,0.939 0.237,0.411 0.347,0.862 0.341,1.305 l -0.001,6.796 -10e-4,-0.004 h -0.001 c -0.035,0.841 -0.442,1.654 -1.225,2.106 C 95.171,-53.549 2.467,-0.027 2.436,-0.009 1.654,0.442 0.746,0.389 0,0"
         style="fill:#00afdb;fill-opacity:1;fill-rule:nonzero;stroke:none"
         id="path1001" />
    </g>
    <g
       id="g1003"
       transform="matrix(0.08449362,0,0,-0.07869747,78.185433,132.93162)"
       style="fill:#00afdb;fill-opacity:1">
      <path
         d="M 0,0 V 0.001 0 L -0.002,0.004 V -6.81 c -0.004,-0.438 0.107,-0.881 0.341,-1.287 0.237,-0.411 0.573,-0.732 0.96,-0.948 l 5.884,-3.398 -10e-4,0.004 v -10e-4 10e-4 c 0.746,-0.39 1.654,-0.444 2.436,0.008 l 104.509,60.338 c 0.782,0.451 1.191,1.265 1.226,2.105 l 0.002,-0.002 v 6.812 c 0.004,0.438 -0.107,0.883 -0.341,1.289 -0.236,0.41 -0.574,0.73 -0.96,0.947 l -5.885,3.397 0.002,-0.003 -0.001,0.001 0.001,-0.001 c -0.746,0.389 -1.654,0.443 -2.436,-0.009 C 93.96,55.645 1.256,2.123 1.226,2.106 0.443,1.654 0.035,0.84 0,0"
         style="fill:#00afdb;fill-opacity:1;fill-rule:nonzero;stroke:none"
         id="path1005" />
    </g>
    <g
       id="g1007"
       transform="matrix(0.08449362,0,0,-0.07869747,64.790085,115.89814)"
       style="fill:#00afdb;fill-opacity:1">
      <path
         d="M 0,0 H 0.001 0 0.004 l -5.9,3.407 c -0.378,0.222 -0.818,0.348 -1.286,0.348 -0.474,0 -0.921,-0.131 -1.301,-0.356 L -14.367,0 h 0.003 c -0.71,-0.451 -1.21,-1.212 -1.21,-2.114 V -122.79 c 0,-0.904 0.5,-1.664 1.21,-2.114 h -10e-4 10e-4 -0.003 l 5.899,-3.408 c 0.378,-0.221 0.818,-0.347 1.286,-0.347 0.474,0 0.92,0.13 1.301,0.356 l 5.885,3.399 H 0 c 0.709,0.45 1.211,1.21 1.211,2.114 V -2.114 C 1.211,-1.212 0.711,-0.451 0,0"
         style="fill:#00afdb;fill-opacity:1;fill-rule:nonzero;stroke:none"
         id="path1009" />
    </g>
    <g
       id="g1011"
       transform="matrix(0.08449362,0,0,-0.07869747,89.957396,115.89813)"
       style="fill:#00afdb;fill-opacity:1">
      <path
         d="M 0,0 H 0.001 0 0.004 l -5.9,3.407 c -0.378,0.222 -0.818,0.348 -1.286,0.348 -0.474,0 -0.921,-0.131 -1.301,-0.356 L -14.367,0 h 0.003 c -0.71,-0.451 -1.21,-1.212 -1.21,-2.114 V -122.79 c 0,-0.904 0.5,-1.664 1.21,-2.114 h -10e-4 10e-4 -0.003 l 5.899,-3.408 c 0.378,-0.221 0.818,-0.348 1.286,-0.348 0.474,0 0.92,0.131 1.3,0.357 l 5.886,3.399 H 0 c 0.709,0.45 1.211,1.21 1.211,2.114 V -2.114 C 1.211,-1.212 0.711,-0.451 0,0"
         style="fill:#00afdb;fill-opacity:1;fill-rule:nonzero;stroke:none"
         id="path1013" />
    </g>
    <g
       id="g1015"
       transform="matrix(0.08449362,0,0,-0.07869747,64.790085,115.89813)"
       style="fill:#00afdb;fill-opacity:1">
      <path
         d="M 0,0 H 0.001 0 0.004 l -5.9,3.407 c -0.378,0.222 -0.818,0.348 -1.286,0.348 -0.474,0 -0.921,-0.131 -1.301,-0.356 L -14.367,0 h 0.003 c -0.71,-0.451 -1.21,-1.212 -1.21,-2.114 V -122.79 c 0,-0.904 0.5,-1.664 1.21,-2.114 h -10e-4 10e-4 -0.003 l 5.899,-3.408 c 0.378,-0.221 0.818,-0.348 1.286,-0.348 0.474,0 0.92,0.131 1.301,0.357 l 5.885,3.399 H 0 c 0.709,0.45 1.211,1.21 1.211,2.114 V -2.114 C 1.211,-1.212 0.711,-0.451 0,0"
         style="fill:#00afdb;fill-opacity:1;fill-rule:nonzero;stroke:none"
         id="path1017" />
    </g>
  </g>
</svg>
