<?xml version="1.0" encoding="UTF-8" standalone="no"?>
<svg
   xmlns:dc="http://purl.org/dc/elements/1.1/"
   xmlns:cc="http://creativecommons.org/ns#"
   xmlns:rdf="http://www.w3.org/1999/02/22-rdf-syntax-ns#"
   xmlns:svg="http://www.w3.org/2000/svg"
   xmlns="http://www.w3.org/2000/svg"
   xmlns:sodipodi="http://sodipodi.sourceforge.net/DTD/sodipodi-0.dtd"
   xmlns:inkscape="http://www.inkscape.org/namespaces/inkscape"
   width="439.15039pt"
   height="380.87885pt"
   version="1.1"
   viewBox="0 0 439.15039 380.87885"
   id="svg1256"
   sodipodi:docname="noun-isaac-newton-365274.svg"
   inkscape:version="1.0.2 (e86c8708, 2021-01-15)">
  <metadata
     id="metadata1260">
    <rdf:RDF>
      <cc:Work
         rdf:about="">
        <dc:format>image/svg+xml</dc:format>
        <dc:type
           rdf:resource="http://purl.org/dc/dcmitype/StillImage" />
        <dc:title></dc:title>
      </cc:Work>
    </rdf:RDF>
  </metadata>
  <sodipodi:namedview
     pagecolor="#ffffff"
     bordercolor="#666666"
     borderopacity="1"
     objecttolerance="10"
     gridtolerance="10"
     guidetolerance="10"
     inkscape:pageopacity="0"
     inkscape:pageshadow="2"
     inkscape:window-width="1920"
     inkscape:window-height="1147"
     id="namedview1258"
     showgrid="false"
     fit-margin-top="0"
     fit-margin-left="0"
     fit-margin-right="0"
     fit-margin-bottom="0"
     inkscape:zoom="0.71464286"
     inkscape:cx="289.1228"
     inkscape:cy="353.26514"
     inkscape:window-x="0"
     inkscape:window-y="668"
     inkscape:window-maximized="0"
     inkscape:current-layer="svg1256" />
  <defs
     id="defs1104">
    <symbol
       id="u"
       overflow="visible">
      <path
         d="m 18.766,-1.125 c -0.96875,0.5 -1.9805,0.875 -3.0312,1.125 -1.043,0.25781 -2.1367,0.39062 -3.2812,0.39062 -3.3984,0 -6.0898,-0.94531 -8.0781,-2.8438 -1.9922,-1.9062 -2.9844,-4.4844 -2.9844,-7.7344 0,-3.2578 0.99219,-5.8359 2.9844,-7.7344 1.9883,-1.9062 4.6797,-2.8594 8.0781,-2.8594 1.1445,0 2.2383,0.13281 3.2812,0.39062 1.0508,0.25 2.0625,0.625 3.0312,1.125 v 4.2188 c -0.98047,-0.65625 -1.9453,-1.1406 -2.8906,-1.4531 -0.94922,-0.3125 -1.9492,-0.46875 -3,-0.46875 -1.875,0 -3.3516,0.60547 -4.4219,1.8125 -1.0742,1.1992 -1.6094,2.8555 -1.6094,4.9688 0,2.1055 0.53516,3.7617 1.6094,4.9688 1.0703,1.1992 2.5469,1.7969 4.4219,1.7969 1.0508,0 2.0508,-0.14844 3,-0.45312 0.94531,-0.3125 1.9102,-0.80078 2.8906,-1.4688 z"
         id="path1041" />
    </symbol>
    <symbol
       id="d"
       overflow="visible">
      <path
         d="m 13.734,-11.141 c -0.4375,-0.19531 -0.87109,-0.34375 -1.2969,-0.4375 -0.41797,-0.10156 -0.83984,-0.15625 -1.2656,-0.15625 -1.2617,0 -2.2305,0.40625 -2.9062,1.2188 -0.67969,0.80469 -1.0156,1.9531 -1.0156,3.4531 v 7.0625 H 2.3591 v -15.312 h 4.8906 v 2.5156 c 0.625,-1 1.3438,-1.7266 2.1562,-2.1875 0.82031,-0.46875 1.8008,-0.70312 2.9375,-0.70312 0.16406,0 0.34375,0.01172 0.53125,0.03125 0.19531,0.01172 0.47656,0.03906 0.84375,0.07813 z"
         id="path1044" />
    </symbol>
    <symbol
       id="c"
       overflow="visible">
      <path
         d="m 17.641,-7.7031 v 1.4062 H 6.188 c 0.125,1.1484 0.53906,2.0078 1.25,2.5781 0.70703,0.57422 1.7031,0.85938 2.9844,0.85938 1.0312,0 2.082,-0.14844 3.1562,-0.45312 1.082,-0.3125 2.1914,-0.77344 3.3281,-1.3906 v 3.7656 c -1.1562,0.4375 -2.3125,0.76562 -3.4688,0.98438 -1.1562,0.22656 -2.3125,0.34375 -3.4688,0.34375 -2.7734,0 -4.9297,-0.70312 -6.4688,-2.1094 -1.5312,-1.4062 -2.2969,-3.3789 -2.2969,-5.9219 0,-2.5 0.75391,-4.4609 2.2656,-5.8906 1.5078,-1.4375 3.582,-2.1562 6.2188,-2.1562 2.4062,0 4.332,0.73047 5.7812,2.1875 1.4453,1.4492 2.1719,3.3828 2.1719,5.7969 z m -5.0312,-1.625 c 0,-0.92578 -0.27344,-1.6719 -0.8125,-2.2344 -0.54297,-0.57031 -1.25,-0.85938 -2.125,-0.85938 -0.94922,0 -1.7188,0.26562 -2.3125,0.79688 -0.5937,0.53126 -0.96484,1.2969 -1.1094,2.2969 z"
         id="path1047" />
    </symbol>
    <symbol
       id="h"
       overflow="visible">
      <path
         d="m 9.2188,-6.8906 c -1.0234,0 -1.793,0.17188 -2.3125,0.51562 -0.51172,0.34375 -0.76562,0.85547 -0.76562,1.5312 0,0.625 0.20703,1.1172 0.625,1.4688 0.41406,0.34375 0.98828,0.51562 1.7188,0.51562 0.92578,0 1.7031,-0.32812 2.3281,-0.98438 0.63281,-0.66406 0.95312,-1.4922 0.95312,-2.4844 v -0.5625 z m 7.4688,-1.8438 V 0 h -4.9219 v -2.2656 c -0.65625,0.92969 -1.3984,1.6055 -2.2188,2.0312 -0.82422,0.41406 -1.8242,0.625 -3,0.625 -1.5859,0 -2.8711,-0.45703 -3.8594,-1.375 -0.99219,-0.92578 -1.4844,-2.1289 -1.4844,-3.6094 0,-1.7891 0.61328,-3.1016 1.8438,-3.9375 1.2383,-0.84375 3.1797,-1.2656 5.8281,-1.2656 h 2.8906 v -0.39062 c 0,-0.76953 -0.30859,-1.332 -0.92188,-1.6875 -0.61719,-0.36328 -1.5703,-0.54688 -2.8594,-0.54688 -1.0547,0 -2.0312,0.10547 -2.9375,0.3125 -0.89844,0.21094 -1.7305,0.52344 -2.5,0.9375 v -3.7344 c 1.0391,-0.25 2.0859,-0.44141 3.1406,-0.57812 1.0625,-0.13281 2.125,-0.20312 3.1875,-0.20312 2.7578,0 4.75,0.54688 5.9688,1.6406 1.2266,1.0859 1.8438,2.8555 1.8438,5.3125 z"
         id="path1050" />
    </symbol>
    <symbol
       id="b"
       overflow="visible">
      <path
         d="m 7.7031,-19.656 v 4.3438 H 12.75 v 3.5 H 7.7031 v 6.5 c 0,0.71094 0.14062,1.1875 0.42188,1.4375 0.28126,0.25 0.83594,0.375 1.6719,0.375 h 2.5156 v 3.5 h -4.1875 c -1.9375,0 -3.3125,-0.39844 -4.125,-1.2031 -0.80469,-0.8125 -1.2031,-2.1797 -1.2031,-4.1094 v -6.5 h -2.4219 v -3.5 h 2.4219 v -4.3438 z"
         id="path1053" />
    </symbol>
    <symbol
       id="g"
       overflow="visible">
      <path
         d="m 12.766,-13.078 v -8.2031 h 4.9219 V -10e-5 H 12.766 v -2.2188 c -0.66797,0.90625 -1.4062,1.5703 -2.2188,1.9844 -0.8126,0.4141 -1.7578,0.625 -2.8281,0.625 -1.8867,0 -3.4336,-0.75 -4.6406,-2.25 -1.2109,-1.5 -1.8125,-3.4258 -1.8125,-5.7812 0,-2.3633 0.60156,-4.2969 1.8125,-5.7969 1.207,-1.5 2.7539,-2.25 4.6406,-2.25 1.0625,0 2,0.21484 2.8125,0.64062 0.82031,0.42969 1.5664,1.0859 2.2344,1.9688 z m -3.2188,9.9219 c 1.0391,0 1.8359,-0.37891 2.3906,-1.1406 0.55078,-0.76953 0.82812,-1.8828 0.82812,-3.3438 0,-1.457 -0.27734,-2.5664 -0.82812,-3.3281 -0.55469,-0.76953 -1.3516,-1.1562 -2.3906,-1.1562 -1.043,0 -1.8398,0.38672 -2.3906,1.1562 -0.55469,0.76172 -0.82812,1.8711 -0.82812,3.3281 0,1.4609 0.27344,2.5742 0.82812,3.3438 0.55078,0.76172 1.3477,1.1406 2.3906,1.1406 z"
         id="path1056" />
    </symbol>
    <symbol
       id="l"
       overflow="visible">
      <path
         d="m 10.5,-3.1562 c 1.0508,0 1.8516,-0.37891 2.4062,-1.1406 0.55078,-0.76953 0.82812,-1.8828 0.82812,-3.3438 0,-1.457 -0.27734,-2.5664 -0.82812,-3.3281 -0.55469,-0.76953 -1.3555,-1.1562 -2.4062,-1.1562 -1.0547,0 -1.8594,0.38672 -2.4219,1.1562 -0.55469,0.77344 -0.82812,1.8828 -0.82812,3.3281 0,1.4492 0.27344,2.5586 0.82812,3.3281 0.5625,0.77344 1.3672,1.1562 2.4219,1.1562 z m -3.25,-9.9219 c 0.67578,-0.88281 1.4219,-1.5391 2.2344,-1.9688 0.82031,-0.42578 1.7656,-0.64062 2.8281,-0.64062 1.8945,0 3.4453,0.75 4.6562,2.25 1.207,1.5 1.8125,3.4336 1.8125,5.7969 0,2.3555 -0.60547,4.2812 -1.8125,5.7812 -1.2109,1.5 -2.7617,2.25 -4.6562,2.25 -1.0625,0 -2.0078,-0.21094 -2.8281,-0.625 C 8.6719,-0.6602 7.9258,-1.32032 7.25,-2.21882 V -2e-5 H 2.3594 v -21.281 H 7.25 Z"
         id="path1059" />
    </symbol>
    <symbol
       id="f"
       overflow="visible">
      <path
         d="m 0.34375,-15.312 h 4.8906 l 4.125,10.391 3.5,-10.391 h 4.8906 l -6.4375,16.766 c -0.64844,1.6953 -1.4023,2.8828 -2.2656,3.5625 -0.86719,0.6875 -2,1.0312 -3.4062,1.0312 H 2.79685 V 2.8289 h 1.5312 c 0.83203,0 1.4375,-0.13672 1.8125,-0.40625 C 6.52336,2.16093 6.82024,1.69218 7.03117,1.01645 L 7.17179,0.59457 Z"
         id="path1062" />
    </symbol>
    <symbol
       id="k"
       overflow="visible">
      <path
         d="M 14.953,-3.7188 H 6.7342 L 5.4217,0 H 0.1405 L 7.703,-20.406 h 6.2656 L 21.5311,0 H 16.2499 Z M 8.0468,-7.5 h 5.5781 l -2.7812,-8.125 z"
         id="path1065" />
    </symbol>
    <symbol
       id="e"
       overflow="visible">
      <path
         d="M 17.75,-9.3281 V 0 h -4.9219 v -7.1406 c 0,-1.3203 -0.03125,-2.2344 -0.09375,-2.7344 -0.0625,-0.5 -0.16797,-0.86719 -0.3125,-1.1094 -0.1875,-0.3125 -0.44922,-0.55469 -0.78125,-0.73438 -0.32422,-0.17578 -0.69531,-0.26562 -1.1094,-0.26562 -1.0234,0 -1.8242,0.39844 -2.4062,1.1875 -0.58594,0.78125 -0.875,1.8711 -0.875,3.2656 V -1e-4 H 2.3594 v -15.312 H 7.25 v 2.2344 c 0.73828,-0.88281 1.5195,-1.5391 2.3438,-1.9688 0.83203,-0.42578 1.75,-0.64062 2.75,-0.64062 1.7695,0 3.1133,0.54688 4.0312,1.6406 0.91406,1.0859 1.375,2.6562 1.375,4.7188 z"
         id="path1068" />
    </symbol>
    <symbol
       id="j"
       overflow="visible">
      <path
         d="M 17.75,-9.3281 V 0 h -4.9219 v -7.1094 c 0,-1.3438 -0.03125,-2.2656 -0.09375,-2.7656 -0.0625,-0.5 -0.16797,-0.86719 -0.3125,-1.1094 -0.1875,-0.3125 -0.44922,-0.55469 -0.78125,-0.73438 -0.32422,-0.17578 -0.69531,-0.26562 -1.1094,-0.26562 -1.0234,0 -1.8242,0.39844 -2.4062,1.1875 -0.58594,0.78125 -0.875,1.8711 -0.875,3.2656 V -1e-4 H 2.3594 v -21.281 H 7.25 v 8.2031 c 0.73828,-0.88281 1.5195,-1.5391 2.3438,-1.9688 0.83203,-0.42578 1.75,-0.64062 2.75,-0.64062 1.7695,0 3.1133,0.54688 4.0312,1.6406 0.91406,1.0859 1.375,2.6562 1.375,4.7188 z"
         id="path1071" />
    </symbol>
    <symbol
       id="a"
       overflow="visible">
      <path
         d="m 9.6406,-12.188 c -1.0859,0 -1.9141,0.39062 -2.4844,1.1719 -0.57422,0.78125 -0.85938,1.9062 -0.85938,3.375 0,1.4688 0.28516,2.5938 0.85938,3.375 0.57031,0.77344 1.3984,1.1562 2.4844,1.1562 1.0625,0 1.875,-0.38281 2.4375,-1.1562 0.57031,-0.78125 0.85938,-1.9062 0.85938,-3.375 0,-1.4688 -0.28906,-2.5938 -0.85938,-3.375 -0.5625,-0.78125 -1.375,-1.1719 -2.4375,-1.1719 z m 0,-3.5 c 2.6328,0 4.6914,0.71484 6.1719,2.1406 1.4766,1.418 2.2188,3.3867 2.2188,5.9062 0,2.5117 -0.74219,4.4805 -2.2188,5.9062 C 14.332,-0.317 12.2734,0.39 9.6406,0.39 6.9922,0.39 4.9258,-0.31703 3.4375,-1.735 1.9453,-3.1608 1.2031,-5.1295 1.2031,-7.6412 c 0,-2.5195 0.74219,-4.4883 2.2344,-5.9062 1.4883,-1.4258 3.5547,-2.1406 6.2031,-2.1406 z"
         id="path1074" />
    </symbol>
    <symbol
       id="t"
       overflow="visible">
      <path
         d="m 10.75,-12.516 c 0.82031,0 1.4453,-0.17969 1.875,-0.54688 0.4375,-0.36328 0.65625,-0.89844 0.65625,-1.6094 0,-0.69531 -0.21875,-1.2266 -0.65625,-1.5938 -0.42969,-0.375 -1.0547,-0.5625 -1.875,-0.5625 H 7.8281 v 4.3125 z m 0.17188,8.9375 c 1.0625,0 1.8594,-0.22266 2.3906,-0.67188 0.53125,-0.44531 0.79688,-1.125 0.79688,-2.0312 0,-0.88281 -0.26562,-1.5469 -0.79688,-1.9844 -0.52344,-0.4375 -1.3203,-0.65625 -2.3906,-0.65625 h -3.0938 v 5.3438 z m 4.8906,-7.3438 c 1.1328,0.32422 2.0078,0.92969 2.625,1.8125 0.625,0.88672 0.9375,1.9688 0.9375,3.25 0,1.9688 -0.66797,3.4375 -2,4.4062 -1.3359,0.96875 -3.3555,1.4531 -6.0625,1.4531 h -8.7344 v -20.406 h 7.8906 c 2.832,0 4.8828,0.42969 6.1562,1.2812 1.2812,0.85547 1.9219,2.2266 1.9219,4.1094 0,1 -0.23438,1.8516 -0.70312,2.5469 -0.46875,0.6875 -1.1484,1.2031 -2.0312,1.5469 z"
         id="path1077" />
    </symbol>
    <symbol
       id="i"
       overflow="visible">
      <path
         d="m 14.312,-14.828 v 3.7188 c -1.043,-0.4375 -2.0547,-0.76562 -3.0312,-0.98438 -0.98047,-0.21875 -1.9023,-0.32812 -2.7656,-0.32812 -0.92969,0 -1.6211,0.11719 -2.0781,0.34375 -0.44922,0.23047 -0.67188,0.58984 -0.67188,1.0781 0,0.38672 0.17188,0.68359 0.51562,0.89062 0.34375,0.21094 0.95703,0.36719 1.8438,0.46875 l 0.85938,0.125 c 2.5078,0.32422 4.1953,0.85156 5.0625,1.5781 0.86328,0.73047 1.2969,1.8711 1.2969,3.4219 0,1.6367 -0.60547,2.8672 -1.8125,3.6875 -1.1992,0.8125 -2.9922,1.2188 -5.375,1.2188 -1.0234,0 -2.0742,-0.078125 -3.1562,-0.23438 -1.0742,-0.15625 -2.1797,-0.39453 -3.3125,-0.71875 v -3.7188 c 0.96875,0.48047 1.9609,0.83984 2.9844,1.0781 1.0312,0.23047 2.0781,0.34375 3.1406,0.34375 0.95703,0 1.6758,-0.12891 2.1562,-0.39062 0.47656,-0.26953 0.71875,-0.66406 0.71875,-1.1875 0,-0.4375 -0.16797,-0.75781 -0.5,-0.96875 -0.33594,-0.21875 -0.99609,-0.38281 -1.9844,-0.5 L 7.34339,-6.01551 c -2.1797,-0.26953 -3.7031,-0.77344 -4.5781,-1.5156 -0.875,-0.73828 -1.3125,-1.8594 -1.3125,-3.3594 0,-1.625 0.55078,-2.8281 1.6562,-3.6094 1.1133,-0.78906 2.8203,-1.1875 5.125,-1.1875 0.89453,0 1.8359,0.07422 2.8281,0.21875 1,0.13672 2.082,0.35156 3.25,0.64062 z"
         id="path1080" />
    </symbol>
    <symbol
       id="s"
       overflow="visible">
      <path
         d="m 12.422,-21.281 v 3.2188 H 9.7189 c -0.6875,0 -1.1719,0.125 -1.4531,0.375 -0.27344,0.25 -0.40625,0.6875 -0.40625,1.3125 v 1.0625 h 4.1875 v 3.5 H 7.85955 V -2e-4 h -4.8906 v -11.812 h -2.4375 v -3.5 h 2.4375 v -1.0625 c 0,-1.6641 0.46094,-2.8984 1.3906,-3.7031 0.92578,-0.80078 2.3672,-1.2031 4.3281,-1.2031 z"
         id="path1083" />
    </symbol>
    <symbol
       id="r"
       overflow="visible">
      <path
         d="m 16.547,-12.766 c 0.61328,-0.94531 1.3477,-1.6719 2.2031,-2.1719 0.85156,-0.5 1.7891,-0.75 2.8125,-0.75 1.7578,0 3.0977,0.54688 4.0156,1.6406 0.92578,1.0859 1.3906,2.6562 1.3906,4.7188 V -4e-4 h -4.9219 v -7.9844 -0.35938 c 0.0078,-0.13281 0.01563,-0.32031 0.01563,-0.5625 0,-1.082 -0.16406,-1.8633 -0.48438,-2.3438 -0.3125,-0.48828 -0.82422,-0.73438 -1.5312,-0.73438 -0.92969,0 -1.6484,0.38672 -2.1562,1.1562 -0.51172,0.76172 -0.77344,1.8672 -0.78125,3.3125 v 7.5156 h -4.9219 v -7.9844 c 0,-1.6953 -0.14844,-2.7852 -0.4375,-3.2656 -0.29297,-0.48828 -0.8125,-0.73438 -1.5625,-0.73438 -0.9375,0 -1.6641,0.38672 -2.1719,1.1562 -0.51172,0.76172 -0.76562,1.8594 -0.76562,3.2969 v 7.5312 h -4.9219 v -15.312 h 4.9219 v 2.2344 c 0.60156,-0.86328 1.2891,-1.5156 2.0625,-1.9531 0.78125,-0.4375 1.6406,-0.65625 2.5781,-0.65625 1.0625,0 2,0.25781 2.8125,0.76562 0.8125,0.51172 1.4258,1.2305 1.8438,2.1562 z"
         id="path1086" />
    </symbol>
    <symbol
       id="q"
       overflow="visible">
      <path
         d="m 2.5781,-20.406 h 5.875 l 7.4219,14 v -14 h 4.9844 V 0 h -5.875 L 7.5625,-14 V 0 H 2.5781 Z"
         id="path1089" />
    </symbol>
    <symbol
       id="p"
       overflow="visible">
      <path
         d="m 2.1875,-5.9688 v -9.3438 h 4.9219 v 1.5312 c 0,0.83594 -0.00781,1.875 -0.015625,3.125 -0.011719,1.25 -0.015625,2.0859 -0.015625,2.5 0,1.2422 0.03125,2.1328 0.09375,2.6719 0.070313,0.54297 0.17969,0.93359 0.32812,1.1719 0.20703,0.32422 0.47266,0.57422 0.79688,0.75 0.32031,0.16797 0.69141,0.25 1.1094,0.25 1.0195,0 1.8203,-0.39062 2.4062,-1.1719 0.58203,-0.78125 0.875,-1.8672 0.875,-3.2656 v -7.5625 h 4.8906 V -6e-4 H 12.6875 V -2.2194 C 11.94531,-1.32096 11.1641,-0.6608 10.3437,-0.235 9.51948,0.17906 8.6093,0.39 7.6093,0.39 5.8476,0.39 4.5038,-0.14906 3.5781,-1.235 2.64841,-2.317 2.1875,-3.8952 2.1875,-5.9694 Z"
         id="path1092" />
    </symbol>
    <symbol
       id="o"
       overflow="visible">
      <path
         d="m 2.5781,-20.406 h 8.7344 c 2.5938,0 4.582,0.57812 5.9688,1.7344 1.3945,1.1484 2.0938,2.7891 2.0938,4.9219 0,2.1367 -0.69922,3.7812 -2.0938,4.9375 -1.3867,1.1562 -3.375,1.7344 -5.9688,1.7344 H 7.8281 V 3e-4 h -5.25 z m 5.25,3.8125 v 5.7031 H 10.75 c 1.0195,0 1.8047,-0.25 2.3594,-0.75 0.5625,-0.5 0.84375,-1.2031 0.84375,-2.1094 0,-0.91406 -0.28125,-1.6172 -0.84375,-2.1094 -0.55469,-0.48828 -1.3398,-0.73438 -2.3594,-0.73438 z"
         id="path1095" />
    </symbol>
    <symbol
       id="n"
       overflow="visible">
      <path
         d="M 2.3594,-15.312 H 7.25 v 15.031 c 0,2.0508 -0.49609,3.6172 -1.4844,4.7031 -0.98047,1.082 -2.4062,1.625 -4.2812,1.625 H -0.9375 V 2.8283 h 0.85938 c 0.92578,0 1.5625,-0.21094 1.9062,-0.625 0.35156,-0.41797 0.53125,-1.2461 0.53125,-2.4844 z m 0,-5.9688 H 7.25 v 4 H 2.3594 Z"
         id="path1098" />
    </symbol>
    <symbol
       id="m"
       overflow="visible">
      <path
         d="m 14.719,-14.828 v 3.9844 c -0.65625,-0.45703 -1.3242,-0.79688 -2,-1.0156 -0.66797,-0.21875 -1.3594,-0.32812 -2.0781,-0.32812 -1.3672,0 -2.4336,0.40234 -3.2031,1.2031 -0.76172,0.79297 -1.1406,1.9062 -1.1406,3.3438 0,1.4297 0.37891,2.543 1.1406,3.3438 0.76953,0.79297 1.8359,1.1875 3.2031,1.1875 0.75781,0 1.4844,-0.10938 2.1719,-0.32812 0.6875,-0.22656 1.3203,-0.56641 1.9062,-1.0156 v 4 c -0.76172,0.28125 -1.5391,0.48828 -2.3281,0.625 -0.78125,0.14453 -1.5742,0.21875 -2.375,0.21875 -2.7617,0 -4.9219,-0.70703 -6.4844,-2.125 -1.5547,-1.4141 -2.3281,-3.3828 -2.3281,-5.9062 0,-2.5312 0.77344,-4.5039 2.3281,-5.9219 1.5625,-1.4141 3.7227,-2.125 6.4844,-2.125 0.80078,0 1.5938,0.07422 2.375,0.21875 0.78125,0.13672 1.5547,0.35156 2.3281,0.64062 z"
         id="path1101" />
    </symbol>
  </defs>
  <path
     d="m 219.3821,380.87885 c -31.848,0 -49.426,-14.027 -50.16,-14.621 -25.762,-24.031 -32.312,-50.566 -32.574,-51.688 -0.0898,-0.25781 -3.8516,-12.84 -3.8516,-52.527 0,-35.969 3.7344,-45.672 6.457,-52.762 0.30078,-0.78516 0.58203,-1.5195 0.84375,-2.25 2.6211,-7.4219 1.8711,-12.336 1.1914,-14.605 -1.3438,-4.4688 -2.1992,-12.875 -2.2305,-13.227 l -0.0234,-16.211 c 0,-2.1953 1.7734,-3.9648 3.9688,-3.9648 2.1954,0 3.9688,1.7734 3.9688,3.9648 v 15.812 c 0.20312,1.8125 0.98047,8.2383 1.9141,11.34 1.1719,3.9102 1.8945,10.465 -1.3086,19.527 -0.28516,0.80469 -0.58984,1.6055 -0.91797,2.4531 -2.5039,6.5078 -5.9297,15.422 -5.9297,49.918 0,38.047 3.5391,50.332 3.5742,50.457 0.125,0.48047 6.418,25.648 30.133,47.777 0.0156,0 16.16,12.668 44.945,12.668 2.1953,0 3.9688,1.7734 3.9688,3.9688 0.008,2.1953 -1.7734,3.9688 -3.9688,3.9688 z"
     id="path1106" />
  <path
     d="m 197.6821,358.64885 c -3.4102,0 -6.6133,-0.64844 -9.5977,-1.9609 -13.086,-5.7305 -16.375,-21.844 -16.504,-22.527 -0.42188,-2.1523 0.98047,-4.2227 3.125,-4.6484 2.1523,-0.40234 4.2383,0.96875 4.6641,3.1211 0.0273,0.125 2.6641,12.773 11.938,16.805 6.3906,2.793 14.785,1.0039 24.953,-5.2656 1.8828,-1.1484 4.3164,-0.56641 5.4648,1.293 1.1484,1.8633 0.57031,4.3164 -1.293,5.4648 -8.3555,5.1406 -15.961,7.7188 -22.75,7.7188 z"
     id="path1108" />
  <path
     d="m 219.6921,335.83885 c -5.6445,0 -10.629,-0.54297 -10.949,-0.58203 -2.1797,-0.24219 -3.7461,-2.207 -3.5039,-4.3789 0.24219,-2.1719 2.2383,-3.707 4.3789,-3.5039 0.10547,0.004 10.793,1.1719 17.641,0.0273 2.1172,-0.37891 4.2109,1.0977 4.5625,3.2656 0.35938,2.1602 -1.1016,4.207 -3.2656,4.5625 -2.7344,0.45703 -5.8906,0.60938 -8.8633,0.60938 z"
     id="path1110" />
  <path
     d="m 186.5721,216.92885 c -9.5469,0 -19.996,-3.4258 -31.07,-10.199 -1.082,-0.66016 -1.7812,-1.8047 -1.8828,-3.0742 -0.10547,-1.2656 0.41016,-2.5039 1.3711,-3.3281 0.51562,-0.44141 12.773,-10.758 29.223,-10.758 9.7891,0 18.93,3.6289 27.16,10.781 1.5586,1.3555 1.8125,3.6719 0.59766,5.3359 -0.33984,0.45703 -8.4141,11.242 -25.398,11.242 z m -21.488,-13.91 c 7.7266,3.9648 14.934,5.9688 21.488,5.9688 7.9805,0 13.301,-2.9805 16.23,-5.2969 -5.8125,-4.1094 -12.047,-6.1875 -18.586,-6.1875 -7.9336,0.008 -14.793,3.0078 -19.133,5.5156 z"
     id="path1112" />
  <path
     d="m 172.9721,231.45885 c -2.1914,0 -3.9648,-1.7734 -3.9648,-3.9648 -0.004,-2.1953 1.7695,-3.9688 3.9609,-3.9766 0.32031,0 31.832,-0.29687 31.832,-20.172 0,-2.1953 1.7734,-3.9648 3.9688,-3.9648 2.1953,0 3.9688,1.7734 3.9688,3.9648 0,22.234 -26.012,28.113 -39.766,28.113 z"
     id="path1114" />
  <path
     d="m 210.4321,195.23885 c -1.2812,0 -2.5039,-0.61719 -3.2578,-1.707 -0.26172,-0.35938 -4.918,-6.6211 -15.383,-6.6211 h -26.332 c 0.10156,0 -8.2539,0.46094 -13.559,5.2266 -1.4297,1.2812 -3.5664,1.3594 -5.0781,0.18359 -1.5195,-1.1758 -1.9805,-3.2656 -1.0938,-4.9688 0.42578,-0.81641 10.613,-20.031 26.215,-20.031 h 24.711 c 6.2148,0.18359 17.754,5.4258 17.754,23.945 0,1.7422 -1.1367,3.2773 -2.8008,3.793 -0.39453,0.12109 -0.78516,0.17969 -1.1758,0.17969 z m -18.645,-16.258 c 5.3828,0 9.6953,1.2617 13.031,2.8906 -2.7422,-6.3398 -7.9922,-6.5977 -8.2891,-6.6094 h -24.594 c -3.5625,0 -6.875,1.7422 -9.7031,4.0664 1.7539,-0.28125 2.918,-0.33984 3.0586,-0.34766 z"
     id="path1116" />
  <path
     d="m 210.4321,291.38885 c -0.17969,0 -0.35938,-0.0117 -0.54297,-0.0391 -2.543,-0.34766 -24.871,-3.7812 -24.871,-17.457 0,-11.316 9.9023,-15.023 15.125,-15.406 2.1445,-0.11719 4.082,1.4883 4.25,3.668 0.15625,2.1836 -1.4766,4.0781 -3.6445,4.2461 -1.3086,0.11719 -7.7891,1.0117 -7.7891,7.4922 0,5.3438 12.359,8.8242 18.004,9.5938 2.1719,0.29688 3.6914,2.2969 3.3945,4.4688 -0.26172,1.9922 -1.9727,3.4336 -3.9258,3.4336 z"
     id="path1118" />
  <path
     d="m 218.7521,298.04885 c -7.207,0 -9.6055,-5.7344 -11.352,-9.9219 -0.83984,-2.0156 -1.7188,-4.0977 -3.0078,-5.7461 -1.7344,-2.207 -7.582,1.5586 -8.5859,2.3477 -1.7266,1.332 -4.2109,1.0547 -5.5703,-0.68359 -1.3438,-1.7266 -1.0469,-4.2227 0.68359,-5.5703 4.7109,-3.6836 14.168,-8.0586 19.719,-0.99219 1.9609,2.4922 3.0859,5.2031 4.082,7.582 1.9141,4.582 2.4688,5.0469 4.0312,5.0469 2.1953,0 3.9688,1.7734 3.9688,3.9688 0.004,2.1953 -1.7773,3.9688 -3.9688,3.9688 z"
     id="path1120" />
  <path
     d="m 220.0021,323.17885 c -16.141,0 -36.754,-5.3359 -37.625,-5.5664 -1.5742,-0.41016 -2.7344,-1.7422 -2.9336,-3.3477 -0.20312,-1.6133 0.59766,-3.1875 2.0234,-3.9688 0.95703,-0.53125 23.688,-12.836 39.57,-3.9375 1.9141,1.0625 2.5977,3.4844 1.5234,5.3984 -1.0743,1.914 -3.4844,2.6055 -5.3984,1.5234 -5.7344,-3.1992 -13.559,-2.4297 -20.227,-0.60938 6.9375,1.3008 15.637,2.5703 23.066,2.5703 2.1953,0 3.9688,1.7734 3.9688,3.9688 -0.004,2.1953 -1.7734,3.9688 -3.9688,3.9688 z"
     id="path1122" />
  <path
     d="m 175.4621,285.14885 c -0.66797,0 -1.3398,-0.16406 -1.9609,-0.51953 -1.9023,-1.0859 -2.5703,-3.5039 -1.4883,-5.4102 0.4375,-0.77344 10.891,-18.867 25.258,-20.301 2.1289,-0.28516 4.1211,1.3711 4.3398,3.5547 0.21875,2.1836 -1.3711,4.1211 -3.5547,4.3398 -8.5234,0.85156 -16.711,12.078 -19.145,16.336 -0.72656,1.2852 -2.0703,2 -3.4492,2 z"
     id="path1124" />
  <path
     d="m 335.8421,368.38885 c -20.836,0 -40.039,-10.461 -51.367,-27.984 -1.1914,-1.8438 -0.66797,-4.3008 1.1758,-5.4805 1.8477,-1.1914 4.3047,-0.66016 5.4805,1.1758 9.8633,15.254 26.57,24.355 44.703,24.355 28.32,0 51.656,-22.125 53.117,-50.379 0.0937,-1.7148 1.2773,-3.1758 2.9297,-3.625 23.156,-6.2344 39.316,-27.355 39.316,-51.352 0,-18.043 -9.0391,-34.703 -24.176,-44.57 -1.6367,-1.0586 -2.25,-3.1523 -1.4609,-4.9336 3.0195,-6.8164 4.5469,-14.055 4.5469,-21.531 0,-17.602 -8.6953,-34.043 -23.262,-43.977 -1.457,-0.99219 -2.082,-2.8281 -1.5352,-4.5078 1.7305,-5.3125 2.6055,-10.852 2.6055,-16.453 0,-29.328 -23.863,-53.195 -53.195,-53.195 -1.0352,0 -2.0547,0.0391 -3.0781,0.0937 -2.0547,0.0898 -3.875,-1.3789 -4.1484,-3.4336 -3.5273,-26.254 -26.188,-46.055 -52.703,-46.055 -10.07,0 -19.887,2.8398 -28.379,8.2148 -1.1211,0.70703 -2.5195,0.80469 -3.7305,0.27344 -1.211,-0.53125 -2.0703,-1.6367 -2.3008,-2.9414 -0.10547,-0.55469 -2.8711,-14.152 -19.555,-14.152 -17.125,0 -21.992,14.094 -22.188,14.695 -0.37891,1.1602 -1.2812,2.0898 -2.4375,2.4961 -1.1367,0.39844 -2.4258,0.28125 -3.4609,-0.37109 -8.5,-5.375 -18.316,-8.2148 -28.379,-8.2148 -26.516,0 -49.172,19.801 -52.703,46.055 -0.27344,2.0547 -2.1562,3.5234 -4.1484,3.4336 -1.0234,-0.0547 -2.043,-0.0937 -3.0781,-0.0937 -29.332,0 -53.195,23.863 -53.195,53.195 0,5.6016 0.875,11.133 2.6055,16.453 0.54688,1.6758 -0.0859,3.5117 -1.5352,4.5078 -14.57,9.9336 -23.262,26.371 -23.262,43.977 0,7.4688 1.5273,14.719 4.5469,21.531 0.79688,1.7734 0.17188,3.8711 -1.4609,4.9336 -15.137,9.8672 -24.176,26.527 -24.176,44.57 0,23.996 16.168,45.121 39.316,51.352 1.6562,0.44922 2.8398,1.9141 2.9297,3.625 1.4688,28.254 24.801,50.379 53.117,50.379 18.133,0 34.848,-9.1016 44.703,-24.355 1.1875,-1.8359 3.6445,-2.3672 5.4805,-1.1758 1.8438,1.1875 2.3672,3.6406 1.1758,5.4805 -11.324,17.523 -30.531,27.984 -51.367,27.984 -31.594,0 -57.785,-23.969 -60.832,-55.082 C 17.332,305.2639 0,281.7209 0,255.0879 c 0,-19.629 9.3125,-37.84 25.066,-49.348 -2.6367,-6.9258 -3.9766,-14.207 -3.9766,-21.688 0,-19.254 9.0547,-37.289 24.359,-48.828 -1.4336,-5.2422 -2.1602,-10.645 -2.1602,-16.102 0,-33.691 27.402,-61.098 61.078,-61.129 5.5312,-28.398 30.711,-49.391 59.988,-49.391 10.051,0 19.887,2.4648 28.699,7.1641 C 197.018,8.7426 205.8262,0 220.8192,0 c 14.816,0 22.52,8.4453 25.723,15.523 8.7031,-4.543 18.367,-6.9219 28.254,-6.9219 29.277,0 54.453,20.996 59.988,49.391 33.684,0.0273 61.078,27.441 61.078,61.129 0,5.4531 -0.72656,10.859 -2.1602,16.102 15.301,11.535 24.359,29.578 24.359,48.828 0,7.4805 -1.3398,14.762 -3.9766,21.688 15.746,11.508 25.066,29.719 25.066,49.348 0,26.633 -17.332,50.176 -42.477,58.219 -3.0469,31.109 -29.238,55.082 -60.836,55.082 z"
     id="path1126" />
  <path
     d="m 348.2021,278.06885 c -23.348,0 -30.625,-16.84 -31.207,-25.738 0.33203,-6.7461 1.6367,-13.004 3.8867,-18.934 -15.754,-11.52 -25.07,-29.73 -25.07,-49.348 0,-5.4531 0.72656,-10.859 2.1602,-16.102 -12.047,-9.0938 -20.332,-22.34 -23.211,-37.09 -11.43,-0.004 -22.477,-3.1602 -32.117,-9.1445 -3.7852,2.2891 -11.77,6.0938 -23.051,6.0938 -11.277,0 -19.266,-3.8008 -23.051,-6.0938 -9.6445,5.9883 -20.688,9.1406 -32.117,9.1445 -2.8789,14.75 -11.16,28 -23.211,37.09 1.4336,5.2461 2.1602,10.645 2.1602,16.102 0,19.617 -9.3125,37.828 -25.07,49.348 2.25,5.918 3.5625,12.113 3.8906,18.465 -0.58984,9.3672 -7.8672,26.207 -31.215,26.207 -7.0625,0 -20.418,-4.2656 -20.418,-20.418 0,-5.6523 1.8242,-10.219 5.4258,-13.586 6.6484,-6.2031 16.918,-5.582 17.336,-5.5625 4.9102,0.39062 14.113,3.8086 14.113,13.945 0,2.1953 -1.7734,3.9688 -3.9688,3.9688 -2.1953,0 -3.9688,-1.7734 -3.9688,-3.9688 0,-5.1367 -5.6445,-5.9297 -6.7812,-6.0312 -0.004,0.004 -7.2422,-0.37891 -11.328,3.4727 -1.9375,1.8203 -2.8789,4.3633 -2.8789,7.7617 0,12.125 11.195,12.477 12.477,12.477 21.836,0 23.238,-17.574 23.289,-18.316 -0.33984,-6.0078 -1.8477,-12.305 -4.4805,-18.246 -0.79688,-1.7734 -0.17188,-3.8633 1.457,-4.9336 15.141,-9.8828 24.18,-26.543 24.18,-44.574 0,-5.6016 -0.875,-11.133 -2.6055,-16.445 -0.54688,-1.6758 0.0859,-3.5117 1.5352,-4.5078 12.477,-8.5117 20.77,-21.934 22.77,-36.836 0.27344,-2.0547 2.1055,-3.6055 4.1484,-3.4336 11.602,0.61719 23.348,-2.5195 33.051,-9.1523 1.4375,-0.99219 3.3828,-0.91797 4.75,0.20312 0.0547,0.043 7.668,5.9922 20.5,5.9922 12.836,0 20.445,-5.9453 20.523,-6.0078 1.3477,-1.082 3.2891,-1.1719 4.7266,-0.18359 9.7109,6.6367 21.441,9.7656 33.051,9.1523 2.0547,-0.17188 3.875,1.3789 4.1484,3.4336 2,14.902 10.297,28.324 22.77,36.836 1.457,0.99219 2.082,2.8281 1.5352,4.5078 -1.7305,5.3125 -2.6055,10.852 -2.6055,16.445 0,18.031 9.0391,34.691 24.18,44.574 1.6289,1.0625 2.2461,3.1523 1.457,4.9336 -2.6328,5.9414 -4.1367,12.234 -4.4727,18.715 0.13281,1.3906 2.0156,17.852 23.285,17.852 2.0664,-0.0234 12.477,-0.72656 12.477,-12.477 0,-3.4102 -0.94531,-5.9531 -2.9062,-7.7852 -4.082,-3.8242 -11.312,-3.4375 -11.379,-3.4453 -1.0586,0.10156 -6.7031,0.89062 -6.7031,6.0273 0,2.1953 -1.7734,3.9688 -3.9688,3.9688 -2.1953,0 -3.9688,-1.7734 -3.9688,-3.9688 0,-10.141 9.1992,-13.551 14.062,-13.938 0.5,-0.0234 10.754,-0.64453 17.383,5.5547 3.6016,3.3672 5.4258,7.9336 5.4258,13.586 0.0156,16.145 -13.34,20.41 -20.398,20.41 z"
     id="path1128" />
  <path
     d="m 184.8321,212.72885 c -6.4336,0 -11.672,-5.2344 -11.672,-11.672 0,-6.4336 5.2344,-11.664 11.672,-11.664 6.4336,0 11.672,5.2344 11.672,11.664 -0.004,6.4336 -5.2344,11.672 -11.672,11.672 z m 0,-15.406 c -2.0547,0 -3.7305,1.6758 -3.7305,3.7344 0,2.0625 1.6758,3.7305 3.7305,3.7305 2.0547,0 3.7305,-1.6758 3.7305,-3.7305 -0.004,-2.0547 -1.6758,-3.7344 -3.7305,-3.7344 z"
     id="path1130" />
  <path
     d="m 219.3821,380.87885 c -2.1953,0 -3.9688,-1.7734 -3.9688,-3.9688 0,-2.1953 1.7734,-3.9688 3.9688,-3.9688 29.023,0 44.543,-12.684 44.695,-12.809 23.555,-21.992 29.836,-47.156 29.898,-47.41 0.10156,-0.34766 3.6328,-12.641 3.6328,-50.688 0,-34.52 -3.4258,-43.422 -5.9375,-49.93 -0.32422,-0.83984 -0.62891,-1.6445 -0.91406,-2.4453 -3.1992,-9.0664 -2.4766,-15.617 -1.3047,-19.523 0.93359,-3.1211 1.7148,-9.5352 1.9375,-11.742 l -0.0234,-15.418 c 0,-2.1953 1.7734,-3.9648 3.9688,-3.9648 2.1953,0 3.9688,1.7734 3.9688,3.9648 v 15.812 c -0.0547,0.75 -0.91406,9.1523 -2.25,13.625 -0.67578,2.2695 -1.4297,7.1836 1.1875,14.605 0.26172,0.72656 0.54297,1.4688 0.83984,2.2344 2.7266,7.0859 6.4609,16.789 6.4609,52.781 0,39.688 -3.7695,52.27 -3.9258,52.785 -0.19531,0.85547 -6.7383,27.406 -32.301,51.258 -0.86328,0.73828 -18.059,14.801 -49.934,14.801 z"
     id="path1132" />
  <path
     d="m 240.6621,358.64885 c -6.7891,0 -14.398,-2.582 -22.746,-7.7227 -1.8633,-1.1523 -2.4453,-3.6016 -1.293,-5.4648 1.1523,-1.8633 3.5938,-2.4531 5.4648,-1.293 10.18,6.2734 18.586,8.0469 24.949,5.2695 9.2773,-4.0391 11.918,-16.684 11.945,-16.812 0.42969,-2.1523 2.5156,-3.5234 4.6641,-3.1211 2.1445,0.42578 3.543,2.5039 3.125,4.6484 -0.12891,0.68359 -3.4141,16.801 -16.508,22.527 -2.9883,1.3164 -6.1992,1.9688 -9.6016,1.9688 z"
     id="path1134" />
  <path
     d="m 251.7721,216.92885 c -16.984,0 -25.066,-10.785 -25.402,-11.246 -1.2148,-1.6641 -0.95703,-3.9805 0.59766,-5.3359 8.2305,-7.1523 17.371,-10.781 27.16,-10.781 16.445,0 28.707,10.32 29.223,10.758 0.96484,0.82422 1.4766,2.0664 1.3711,3.3281 -0.10156,1.2695 -0.80078,2.4141 -1.8828,3.0742 -11.062,6.7734 -21.52,10.203 -31.066,10.203 z m -16.223,-13.238 c 2.9297,2.3242 8.2539,5.3047 16.223,5.3047 6.5469,0 13.746,-2 21.469,-5.957 -4.3633,-2.5156 -11.238,-5.5273 -19.113,-5.5273 -6.5391,0 -12.773,2.0742 -18.578,6.1797 z"
     id="path1136" />
  <path
     d="m 265.3721,231.45885 c -13.754,0 -39.766,-5.8789 -39.766,-28.113 0,-2.1953 1.7734,-3.9648 3.9688,-3.9648 2.1954,0 3.9688,1.7734 3.9688,3.9648 0,19.941 31.504,20.172 31.824,20.172 2.1953,0 3.9688,1.7734 3.9688,3.9688 0.004,2.1992 -1.7695,3.9727 -3.9648,3.9727 z"
     id="path1138" />
  <path
     d="m 227.9121,195.21885 c -0.39844,0 -0.80469,-0.0625 -1.1992,-0.18359 -1.6406,-0.52734 -2.7734,-2.0391 -2.7734,-3.7617 0,-18.52 11.531,-23.762 17.625,-23.945 h 24.84 c 15.602,0 25.781,19.215 26.215,20.031 0.88672,1.7031 0.42578,3.793 -1.0859,4.9688 -1.5195,1.1719 -3.6641,1.0977 -5.0859,-0.18359 -5.3086,-4.7695 -13.652,-5.2305 -13.738,-5.2305 h -26.156 c -10.543,0 -15.188,6.3516 -15.379,6.625 -0.76953,1.0664 -1.9961,1.6797 -3.2617,1.6797 z m 13.777,-19.957 c -0.61719,0.0391 -5.5156,0.55859 -8.1484,6.5977 3.332,-1.625 7.6367,-2.8789 13.008,-2.8789 h 26.336 c 0.19531,0.004 1.4102,0.0664 3.207,0.35156 -2.9023,-2.3516 -6.2148,-4.0703 -9.6875,-4.0703 z"
     id="path1140" />
  <path
     d="m 218.9621,206.06885 c -7.0039,0 -12.711,-6.6367 -12.711,-14.797 0,-2.1953 1.7734,-3.9648 3.9688,-3.9648 2.1953,0 3.9688,1.7734 3.9688,3.9648 0,3.7188 2.1836,6.8555 4.7695,6.8555 2.5859,0 4.7695,-3.1406 4.7695,-6.8555 0,-2.1953 1.7734,-3.9648 3.9688,-3.9648 2.1953,0 3.9688,1.7734 3.9688,3.9648 0.004,8.1602 -5.6953,14.797 -12.703,14.797 z"
     id="path1142" />
  <path
     d="m 227.9121,291.38885 c -1.9531,0 -3.6523,-1.4453 -3.9258,-3.4336 -0.29688,-2.168 1.2266,-4.168 3.3945,-4.4688 5.6406,-0.77734 18.004,-4.2734 18.004,-9.5938 0,-6.4844 -6.4844,-7.375 -7.7891,-7.4922 -2.1797,-0.18359 -3.8008,-2.0938 -3.6289,-4.2656 0.16797,-2.1836 2.0781,-3.793 4.2344,-3.6445 5.2305,0.37891 15.125,4.0898 15.125,15.406 0,13.676 -22.328,17.113 -24.871,17.457 -0.18359,0.0273 -0.36328,0.0352 -0.54297,0.0352 z"
     id="path1144" />
  <path
     d="m 219.5821,298.04885 c -2.1953,0 -3.9688,-1.7734 -3.9688,-3.9688 0,-2.1953 1.7734,-3.9688 3.9688,-3.9688 1.5586,0 2.1172,-0.46484 4.0312,-5.0469 1.0039,-2.3867 2.1289,-5.0898 4.082,-7.582 5.5508,-7.0547 15.012,-2.6953 19.719,0.99219 1.7266,1.3477 2.0273,3.8359 0.68359,5.5625 -1.3438,1.7344 -3.832,2.0312 -5.5664,0.69922 -1.7344,-1.3438 -6.9883,-4.4023 -8.5898,-2.3516 -1.2891,1.6445 -2.168,3.7305 -3.0078,5.7461 -1.7461,4.1836 -4.1406,9.918 -11.352,9.918 z"
     id="path1146" />
  <path
     d="m 218.3421,323.17885 c -2.1953,0 -3.9688,-1.7734 -3.9688,-3.9688 0,-2.1954 1.7734,-3.9688 3.9688,-3.9688 7.4258,0 16.109,-1.2695 23.043,-2.5664 -6.4453,-1.8047 -14.352,-2.7344 -20.352,0.60547 -1.9141,1.082 -4.3242,0.38672 -5.3984,-1.5234 -1.0742,-1.91012 -0.38672,-4.3281 1.5234,-5.3984 15.883,-8.8945 38.734,3.3984 39.703,3.9297 1.4297,0.78516 2.2344,2.3516 2.0312,3.9688 -0.19531,1.6133 -1.3594,2.9414 -2.9336,3.3555 -0.86328,0.23047 -21.484,5.5664 -37.617,5.5664 z"
     id="path1148" />
  <path
     d="m 262.8821,285.14885 c -1.3789,0 -2.7148,-0.71875 -3.4492,-1.9922 -2.4375,-4.2578 -10.617,-15.484 -19.145,-16.336 -2.1836,-0.21875 -3.7734,-2.1602 -3.5547,-4.3398 0.21875,-2.1797 2.1953,-3.8086 4.3398,-3.5547 14.359,1.4336 24.82,19.527 25.258,20.301 1.082,1.9023 0.41406,4.3164 -1.4883,5.4102 -0.625,0.34766 -1.2969,0.51172 -1.9609,0.51172 z"
     id="path1150" />
  <path
     d="m 253.5121,212.72885 c -6.4336,0 -11.672,-5.2344 -11.672,-11.672 0,-6.4336 5.2344,-11.664 11.672,-11.664 6.4336,0 11.672,5.2344 11.672,11.664 0,6.4336 -5.2383,11.672 -11.672,11.672 z m 0,-15.406 c -2.0547,0 -3.7305,1.6758 -3.7305,3.7344 0,2.0625 1.6758,3.7305 3.7305,3.7305 2.0547,0 3.7305,-1.6758 3.7305,-3.7305 0,-2.0547 -1.6758,-3.7344 -3.7305,-3.7344 z"
     id="path1152" />
  <path
     d="m 63.0921,196.58885 c -0.27344,0 -0.55469,-0.0273 -0.82812,-0.0898 -2.1445,-0.46094 -3.5117,-2.5664 -3.0586,-4.7109 2.7656,-12.965 11.52,-17.848 19.242,-22.152 9.6641,-5.3945 16.648,-9.2891 12.512,-28.141 -2.418,-11.043 -1.8867,-18.637 1.6758,-23.902 4.4297,-6.5391 12.234,-7.8398 20.496,-9.2188 7.6289,-1.2656 15.512,-2.5742 21.699,-7.9805 6.707,-5.8672 9.5352,-13.836 12.027,-20.871 2.6562,-7.4766 5.1562,-14.539 11.945,-17.051 6.1484,-2.2734 14.332,-0.16797 26.555,6.832 4.7305,2.7109 9.6719,4.1719 14.449,5.5781 11.703,3.457 23.812,7.0273 23.812,29.062 0,2.1953 -1.7734,3.9648 -3.9688,3.9648 -2.1953,0 -3.9688,-1.7734 -3.9688,-3.9648 0,-16.102 -6.8203,-18.117 -18.117,-21.453 -4.9727,-1.4688 -10.613,-3.1289 -16.152,-6.3008 -9.5938,-5.4883 -16.262,-7.5898 -19.848,-6.2812 -3.3086,1.2266 -5.0352,6.0977 -7.2227,12.27 -2.6836,7.5547 -6.0156,16.957 -14.293,24.191 -7.8867,6.8828 -17.309,8.4492 -25.621,9.832 -6.8164,1.1328 -12.707,2.1094 -15.227,5.8359 -2.1992,3.2461 -2.3633,9.2188 -0.49219,17.746 5.3945,24.613 -6.1836,31.07 -16.402,36.77 -7.1523,3.9883 -13.328,7.4375 -15.34,16.879 -0.39844,1.8789 -2.043,3.1562 -3.875,3.1562 z"
     id="path1154" />
  <path
     d="m 107.8221,348.04885 c -5.1875,0 -10.449,-1.0117 -15.52,-3.1523 -16.645,-7.043 -24.461,-26.32 -17.422,-42.969 5.8008,-13.727 21.672,-20.172 35.41,-14.359 5.5117,2.3281 9.7891,6.668 12.039,12.219 2.2461,5.5508 2.207,11.641 -0.12891,17.152 -4.0273,9.5039 -15.043,13.949 -24.535,9.9531 -2.0156,-0.85156 -2.9609,-3.1797 -2.1172,-5.2031 0.85156,-2.0156 3.1797,-2.9531 5.2031,-2.1172 5.4805,2.3242 11.82,-0.25781 14.141,-5.7305 1.5078,-3.5625 1.5352,-7.4922 0.0859,-11.078 -1.44926,-3.5858 -4.2188,-6.3906 -7.7852,-7.8945 -9.6875,-4.0938 -20.906,0.45312 -25.008,10.148 -5.332,12.617 0.59375,27.227 13.211,32.57 16.258,6.8828 35.117,-0.76562 42.004,-17.047 0.85156,-2.0156 3.1758,-2.9531 5.2031,-2.1055 2.0156,0.85156 2.957,3.1758 2.1055,5.2031 -6.4414,15.238 -21.297,24.41 -36.887,24.41 z"
     id="path1156" />
  <path
     d="m 49.7721,285.71885 c -0.32031,0 -0.63281,-0.0391 -0.95312,-0.11719 -1.0547,-0.26172 -25.895,-6.5781 -25.895,-26.723 0,-19.152 17.023,-38.965 45.504,-38.965 22.898,0 40.828,-18.34 40.828,-41.766 0,-2.1953 1.7734,-3.9648 3.9688,-3.9648 2.1953,0 3.9688,1.7734 3.9688,3.9648 0,27.871 -21.422,49.707 -48.77,49.707 -23.516,0 -37.566,15.77 -37.566,31.023 0,13.988 19.645,18.969 19.848,19.02 2.1289,0.52734 3.4258,2.6719 2.9102,4.8008 -0.4375,1.8047 -2.0625,3.0195 -3.8438,3.0195 z"
     id="path1158" />
  <path
     d="m 90.6621,94.39885 c -0.59766,0 -0.94141,-0.0117 -0.97266,-0.0156 -2.1914,-0.11719 -3.8594,-1.9805 -3.7461,-4.168 0.11328,-2.1836 1.8242,-3.8594 4.168,-3.7578 1.2773,0.0781 31.633,1.25 40.82,-27.125 0.67188,-2.0898 2.9102,-3.2188 4.9961,-2.5547 2.0898,0.67578 3.2305,2.9102 2.5547,5 -10.082,31.121 -41.84,32.621 -47.82,32.621 z"
     id="path1160" />
  <path
     d="m 376.1821,196.58885 c -1.832,0 -3.4766,-1.2773 -3.875,-3.1406 -1.5664,-7.3711 -5.918,-8.9922 -12.492,-11.445 -7,-2.6133 -15.707,-5.8633 -20.816,-17.734 -2.5703,-5.9805 -0.82422,-13.758 1.0195,-21.992 1.8984,-8.457 3.8516,-17.199 0.54297,-22.125 -2.7344,-4.0664 -10.879,-5.2578 -18.762,-6.418 -8.3594,-1.2266 -17.012,-2.4961 -22.562,-7.3477 -5.0195,-4.3789 -7.4883,-12.164 -9.8789,-19.695 -2.5938,-8.1523 -5.2656,-16.582 -10.496,-18.582 -4.2734,-1.6406 -11.316,2.4648 -18.109,6.4219 -7.3008,4.2578 -14.844,8.6562 -22.449,8.6562 -2.1953,0 -3.9688,-1.7734 -3.9688,-3.9648 0,-2.1914 1.7734,-3.9648 3.9688,-3.9648 5.4609,0 12.062,-3.8516 18.453,-7.5781 8.4102,-4.9062 17.113,-9.9922 24.941,-6.9883 8.7969,3.3672 12.062,13.652 15.227,23.594 2.0625,6.4922 4.1953,13.203 7.5391,16.121 3.793,3.3164 11.266,4.4141 18.492,5.4727 9.5938,1.4062 19.504,2.8633 24.191,9.8398 5.2266,7.7656 2.7773,18.672 0.62109,28.293 -1.4883,6.6367 -3.0312,13.5 -1.4727,17.121 3.7617,8.7539 9.8516,11.027 16.297,13.434 7.0352,2.625 15.004,5.6016 17.484,17.23 0.45312,2.1445 -0.91406,4.25 -3.0586,4.7109 -0.28125,0.0508 -0.5625,0.082 -0.83594,0.082 z"
     id="path1162" />
  <path
     d="m 331.4521,348.04885 c -15.598,0 -30.445,-9.1719 -36.887,-24.41 -0.85156,-2.0234 0.0898,-4.3438 2.1055,-5.2031 2.0117,-0.84375 4.3398,0.0898 5.2031,2.1055 6.8867,16.277 25.762,23.922 42.004,17.047 12.617,-5.3438 18.547,-19.953 13.211,-32.574 -4.0977,-9.6836 -15.309,-14.234 -25.008,-10.141 -3.5664,1.5117 -6.3281,4.3164 -7.7852,7.8945 -1.4571,3.5781 -1.4219,7.5156 0.0859,11.078 2.3203,5.4766 8.6562,8.0547 14.141,5.7305 2.0039,-0.83984 4.3438,0.10156 5.2031,2.1172 0.84375,2.0156 -0.10156,4.3438 -2.1172,5.2031 -9.4883,3.9922 -20.508,-0.44922 -24.535,-9.9531 -2.3359,-5.5117 -2.3789,-11.602 -0.12891,-17.152 2.25,-5.543 6.5312,-9.8906 12.039,-12.219 13.742,-5.8086 29.613,0.63672 35.41,14.352 7.0391,16.656 -0.78516,35.93 -17.422,42.973 -5.0703,2.1406 -10.332,3.1523 -15.52,3.1523 z"
     id="path1164" />
  <path
     d="m 389.5021,285.71885 c -1.7812,0 -3.3984,-1.2148 -3.8516,-3.0195 -0.52734,-2.1289 0.77734,-4.2773 2.9023,-4.8008 0.19531,-0.0547 19.852,-5.1055 19.852,-19.02 0,-15.254 -14.051,-31.023 -37.566,-31.023 -27.352,0 -48.77,-21.836 -48.77,-49.707 0,-2.1953 1.7734,-3.9648 3.9688,-3.9648 2.1953,0 3.9688,1.7734 3.9688,3.9648 0,23.426 17.93,41.766 40.828,41.766 28.48,0 45.504,19.812 45.504,38.965 0,20.148 -24.84,26.465 -25.895,26.723 -0.31641,0.0781 -0.62891,0.11719 -0.94141,0.11719 z"
     id="path1166" />
  <path
     d="m 348.6121,94.39885 c -5.9766,0 -37.738,-1.5 -47.812,-32.625 -0.67578,-2.0898 0.46484,-4.3242 2.5547,-5 2.0703,-0.66797 4.3164,0.46484 4.9961,2.5547 9.1836,28.371 39.543,27.184 40.82,27.125 2.2734,-0.18359 4.0547,1.5664 4.168,3.7578 0.11719,2.1836 -1.5586,4.0469 -3.7461,4.168 -0.043,0.008 -0.37891,0.0195 -0.98047,0.0195 z"
     id="path1168" />
  <path
     d="m 216.2321,58.40885 c -22.43,0 -39.602,-11.195 -39.859,-11.363 -1.8203,-1.2148 -2.3086,-3.6719 -1.0977,-5.4922 1.2227,-1.8242 3.668,-2.3203 5.5,-1.1133 1.3984,0.92969 34.652,22.449 67.426,0.0273 1.8242,-1.2383 4.2852,-0.76172 5.5156,1.0352 1.2383,1.8086 0.77734,4.2773 -1.0352,5.5156 -12.484,8.543 -25.141,11.391 -36.449,11.391 z"
     id="path1170" />
</svg>
