<?xml version="1.0" encoding="UTF-8" standalone="no"?>
<svg
   xmlns:dc="http://purl.org/dc/elements/1.1/"
   xmlns:cc="http://creativecommons.org/ns#"
   xmlns:rdf="http://www.w3.org/1999/02/22-rdf-syntax-ns#"
   xmlns:svg="http://www.w3.org/2000/svg"
   xmlns="http://www.w3.org/2000/svg"
   xmlns:sodipodi="http://sodipodi.sourceforge.net/DTD/sodipodi-0.dtd"
   xmlns:inkscape="http://www.inkscape.org/namespaces/inkscape"
   width="375.01935pt"
   height="502.00888pt"
   version="1.1"
   viewBox="0 0 375.01935 502.00888"
   id="svg1964"
   sodipodi:docname="noun-crystal-ball-5460466.svg"
   inkscape:version="1.0.2 (e86c8708, 2021-01-15)">
  <metadata
     id="metadata1968">
    <rdf:RDF>
      <cc:Work
         rdf:about="">
        <dc:format>image/svg+xml</dc:format>
        <dc:type
           rdf:resource="http://purl.org/dc/dcmitype/StillImage" />
        <dc:title></dc:title>
      </cc:Work>
    </rdf:RDF>
  </metadata>
  <sodipodi:namedview
     pagecolor="#ffffff"
     bordercolor="#666666"
     borderopacity="1"
     objecttolerance="10"
     gridtolerance="10"
     guidetolerance="10"
     inkscape:pageopacity="0"
     inkscape:pageshadow="2"
     inkscape:window-width="1920"
     inkscape:window-height="1119"
     id="namedview1966"
     showgrid="false"
     fit-margin-top="0"
     fit-margin-left="0"
     fit-margin-right="0"
     fit-margin-bottom="0"
     inkscape:zoom="0.71464286"
     inkscape:cx="-5.8632735"
     inkscape:cy="420.62533"
     inkscape:window-x="0"
     inkscape:window-y="668"
     inkscape:window-maximized="0"
     inkscape:current-layer="svg1964" />
  <defs
     id="defs1880">
    <symbol
       id="h"
       overflow="visible">
      <path
         d="M 3.6562,-0.21875 C 3.4687,-0.125 3.26948,-0.05078 3.06245,0 2.86323,0.050781 2.6562,0.078125 2.43745,0.078125 c -0.66797,0 -1.1992,-0.17969 -1.5938,-0.54688 -0.38672,-0.375 -0.57812,-0.87891 -0.57812,-1.5156 0,-0.64453 0.19141,-1.1484 0.57812,-1.5156 0.39453,-0.375 0.92578,-0.5625 1.5938,-0.5625 0.21875,0 0.42578,0.027344 0.625,0.078125 0.20703,0.054687 0.40625,0.125 0.59375,0.21875 v 0.82812 c -0.1875,-0.125 -0.375,-0.21875 -0.5625,-0.28125 -0.17969,-0.0625 -0.37109,-0.09375 -0.57812,-0.09375 -0.36719,0 -0.65625,0.12109 -0.875,0.35938 -0.21094,0.23047 -0.3125,0.55469 -0.3125,0.96875 0,0.40625 0.10156,0.73047 0.3125,0.96875 0.21875,0.23047 0.50781,0.34375 0.875,0.34375 0.20703,0 0.39844,-0.023437 0.57812,-0.078125 0.1875,-0.0625 0.375,-0.16016 0.5625,-0.29688 z"
         id="path1823" />
    </symbol>
    <symbol
       id="d"
       overflow="visible">
      <path
         d="M 2.6875,-2.1719 C 2.601562,-2.210963 2.51953,-2.242213 2.4375,-2.26565 2.351562,-2.285181 2.26953,-2.2969 2.1875,-2.2969 c -0.25,0 -0.44531,0.085937 -0.57812,0.25 -0.125,0.15625 -0.1875,0.38281 -0.1875,0.67188 V -2e-5 H 0.45313 v -2.9844 h 0.96875 v 0.48438 c 0.11328,-0.19531 0.25,-0.33594 0.40625,-0.42188 0.16406,-0.09375 0.35938,-0.14062 0.57812,-0.14062 h 0.10938 c 0.039063,0 0.09375,0.00781 0.15625,0.015625 z"
         id="path1826" />
    </symbol>
    <symbol
       id="c"
       overflow="visible">
      <path
         d="m 3.4375,-1.5 v 0.26562 H 1.2031 c 0.03125,0.23047 0.11328,0.40234 0.25,0.51562 0.13281,0.10547 0.32812,0.15625 0.57812,0.15625 0.20703,0 0.41406,-0.023438 0.625,-0.078125 0.20703,-0.0625 0.42188,-0.15625 0.64062,-0.28125 v 0.73438 c -0.21875,0.09375 -0.44531,0.16406 -0.67188,0.20312 -0.23047,0.039062 -0.45312,0.0625 -0.67188,0.0625 -0.54297,0 -0.96484,-0.13281 -1.2656,-0.40625 -0.30469,-0.28125 -0.45312,-0.67188 -0.45312,-1.1719 0,-0.47656 0.14453,-0.85938 0.4375,-1.1406 0.30078,-0.28125 0.70703,-0.42188 1.2188,-0.42188 0.46875,0 0.84375,0.14062 1.125,0.42188 0.28125,0.28126 0.42188,0.66406 0.42188,1.1406 z M 2.46875,-1.82812 C 2.46875,-2.0039 2.410156,-2.14453 2.29687,-2.25 2.1914,-2.36328 2.05468,-2.42188 1.89062,-2.42188 c -0.1875,0 -0.33984,0.054687 -0.45312,0.15625 -0.11719,0.10547 -0.1875,0.25 -0.21875,0.4375 z"
         id="path1829" />
    </symbol>
    <symbol
       id="e"
       overflow="visible">
      <path
         d="m 1.7969,-1.3438 c -0.19922,0 -0.35156,0.039062 -0.45312,0.10938 -0.09375,0.0625 -0.14062,0.16406 -0.14062,0.29688 0,0.11719 0.035156,0.21094 0.10938,0.28125 0.082031,0.0625 0.19531,0.09375 0.34375,0.09375 0.17578,0 0.32812,-0.0625 0.45312,-0.1875 0.125,-0.125 0.1875,-0.28516 0.1875,-0.48438 V -1.3438 Z M 3.2657,-1.70318 V -8e-5 H 2.29695 v -0.4375 c -0.125,0.17969 -0.27344,0.30859 -0.4375,0.39062 -0.15625,0.082031 -0.35156,0.125 -0.57812,0.125 -0.3125,0 -0.57031,-0.085938 -0.76562,-0.26562 -0.1875,-0.1875 -0.28125,-0.42188 -0.28125,-0.70312 0,-0.35156 0.11719,-0.61328 0.35938,-0.78125 0.23828,-0.16406 0.61719,-0.25 1.1406,-0.25 h 0.5625 v -0.0625 c 0,-0.15625 -0.0625,-0.26562 -0.1875,-0.32812 -0.11719,-0.070312 -0.29688,-0.10938 -0.54688,-0.10938 -0.21094,0 -0.40234,0.023437 -0.57812,0.0625 -0.17969,0.042969 -0.33984,0.10156 -0.48438,0.17188 v -0.71875 c 0.19531,-0.050781 0.39844,-0.085938 0.60938,-0.10938 0.20703,-0.03125 0.41406,-0.046875 0.625,-0.046875 0.53906,0 0.92969,0.10938 1.1719,0.32812 0.23828,0.21094 0.35938,0.55469 0.35938,1.0312 z"
         id="path1832" />
    </symbol>
    <symbol
       id="b"
       overflow="visible">
      <path
         d="m 1.5,-3.8438 v 0.85938 h 0.98438 v 0.67188 H 1.5 v 1.2812 c 0,0.13672 0.023438,0.23047 0.078125,0.28125 0.0625,0.042969 0.17578,0.0625 0.34375,0.0625 h 0.48438 V -9e-5 h -0.8125 c -0.38672,0 -0.65625,-0.078125 -0.8125,-0.23438 -0.15625,-0.156255 -0.23438,-0.42188 -0.23438,-0.79688 v -1.2812 h -0.46875 v -0.67188 h 0.46875 v -0.85938 z"
         id="path1835" />
    </symbol>
    <symbol
       id="l"
       overflow="visible">
      <path
         d="M 2.5,-2.5469 V -4.1563 H 3.45312 V -10e-5 H 2.5 v -0.4375 c -0.13672,0.17969 -0.28125,0.30859 -0.4375,0.39062 -0.15625,0.082031 -0.33984,0.125 -0.54688,0.125 -0.375,0 -0.68359,-0.14453 -0.92188,-0.4375 -0.23047,-0.28906 -0.34375,-0.67188 -0.34375,-1.1406 0,-0.45703 0.11328,-0.83203 0.34375,-1.125 0.23828,-0.28906 0.54688,-0.4375 0.92188,-0.4375 0.19531,0 0.375,0.042969 0.53125,0.125 0.16406,0.085938 0.31641,0.21484 0.45312,0.39062 z m -0.64062,1.9375 c 0.20703,0 0.36328,-0.070313 0.46875,-0.21875 0.11328,-0.15625 0.17188,-0.37891 0.17188,-0.67188 0,-0.28125 -0.058594,-0.49219 -0.17188,-0.64062 -0.10547,-0.15625 -0.26172,-0.23438 -0.46875,-0.23438 -0.19922,0 -0.35547,0.078125 -0.46875,0.23438 -0.10547,0.14844 -0.15625,0.35938 -0.15625,0.64062 0,0.29297 0.050781,0.51562 0.15625,0.67188 0.11328,0.14844 0.26953,0.21875 0.46875,0.21875 z"
         id="path1838" />
    </symbol>
    <symbol
       id="k"
       overflow="visible">
      <path
         d="m 2.0469,-0.60938 c 0.20703,0 0.36328,-0.070313 0.46875,-0.21875 0.11328,-0.15625 0.17188,-0.37891 0.17188,-0.67188 0,-0.28125 -0.058594,-0.49219 -0.17188,-0.64062 -0.10547,-0.15625 -0.26172,-0.23438 -0.46875,-0.23438 -0.19922,0 -0.35547,0.078125 -0.46875,0.23438 -0.10547,0.14844 -0.15625,0.35938 -0.15625,0.64062 0,0.29297 0.050781,0.51562 0.15625,0.67188 0.11328,0.14844 0.26953,0.21875 0.46875,0.21875 z m -0.625,-1.9375 c 0.125,-0.17578 0.26562,-0.30469 0.42188,-0.39062 0.16406,-0.082031 0.35156,-0.125 0.5625,-0.125 0.36328,0 0.66406,0.14844 0.90625,0.4375 0.23828,0.29297 0.35938,0.66797 0.35938,1.125 0,0.46875 -0.12109,0.85156 -0.35938,1.1406 -0.24219,0.29297 -0.54297,0.4375 -0.90625,0.4375 -0.21094,0 -0.39844,-0.042969 -0.5625,-0.125 C 1.68753,-0.128931 1.5469,-0.25784 1.4219,-0.43752 V -2e-5 H 0.45315 v -4.1562 H 1.4219 Z"
         id="path1841" />
    </symbol>
    <symbol
       id="j"
       overflow="visible">
      <path
         d="m 0.0625,-2.9844 h 0.95312 l 0.8125,2.0156 0.6875,-2.0156 H 3.46874 L 2.20314,0.2812 C 2.07814,0.61323 1.9297,0.84761 1.76564,0.98432 1.59767,1.11713 1.37502,1.18744 1.09376,1.18744 H 0.54688 V 0.54682 h 0.29688 c 0.16406,0 0.28516,-0.027344 0.35938,-0.078125 0.070313,-0.054688 0.12891,-0.14062 0.17188,-0.26562 l 0.03125,-0.09375 z"
         id="path1844" />
    </symbol>
    <symbol
       id="i"
       overflow="visible">
      <path
         d="m 0.5,-3.9844 h 2.7812 v 0.78125 h -1.75 v 0.73438 h 1.6406 v 0.78125 H 1.5312 V -2e-5 H 0.5 Z"
         id="path1847" />
    </symbol>
    <symbol
       id="g"
       overflow="visible">
      <path
         d="M 3.4688,-1.8281 V 0 H 2.50005 v -1.3906 c 0,-0.25781 -0.00781,-0.4375 -0.015625,-0.53125 -0.011719,-0.10156 -0.03125,-0.17578 -0.0625,-0.21875 -0.03125,-0.0625 -0.085937,-0.10938 -0.15625,-0.14062 -0.0625,-0.039062 -0.13281,-0.0625 -0.20312,-0.0625 -0.21094,0 -0.37109,0.078125 -0.48438,0.23438 -0.10547,0.15625 -0.15625,0.37109 -0.15625,0.64062 V 8e-5 h -0.96875 v -2.9844 h 0.96875 v 0.4375 c 0.13281,-0.17578 0.28516,-0.30469 0.45312,-0.39062 0.16406,-0.082031 0.34375,-0.125 0.53125,-0.125 0.34375,0 0.60156,0.10938 0.78125,0.32812 0.1875,0.21094 0.28125,0.51172 0.28125,0.90625 z"
         id="path1850" />
    </symbol>
    <symbol
       id="a"
       overflow="visible">
      <path
         d="m 1.875,-2.375 c -0.21094,0 -0.37109,0.078125 -0.48438,0.23438 -0.10547,0.14844 -0.15625,0.35938 -0.15625,0.64062 0,0.29297 0.050781,0.51562 0.15625,0.67188 0.11328,0.14844 0.27344,0.21875 0.48438,0.21875 0.20703,0 0.36719,-0.070313 0.48438,-0.21875 C 2.47266,-0.98437 2.53126,-1.20703 2.53126,-1.5 2.53126,-1.78125 2.472666,-1.99219 2.35938,-2.14062 2.24219,-2.29687 2.08204,-2.375 1.875,-2.375 Z m 0,-0.6875 c 0.51953,0 0.92188,0.14062 1.2031,0.42188 0.28906,0.27344 0.4375,0.65234 0.4375,1.1406 0,0.5 -0.14844,0.89062 -0.4375,1.1719 C 2.79685,-0.05468 2.39451,0.07813 1.875,0.07813 1.36328,0.07813 0.96094,-0.05468 0.6719,-0.32812 0.37893,-0.60937 0.2344,-1 0.2344,-1.50002 c 0,-0.48828 0.14453,-0.86719 0.4375,-1.1406 C 0.96096,-2.92187 1.36331,-3.0625 1.875,-3.0625 Z"
         id="path1853" />
    </symbol>
    <symbol
       id="f"
       overflow="visible">
      <path
         d="m 0.42188,-1.1719 v -1.8125 h 0.96875 v 0.29688 0.60938 0.48438 c 0,0.24219 0.00391,0.41797 0.015625,0.53125 0.00781,0.10547 0.03125,0.17969 0.0625,0.21875 0.039062,0.0625 0.09375,0.11719 0.15625,0.15625 0.0625,0.03125 0.13281,0.046875 0.21875,0.046875 0.19531,0 0.35156,-0.078125 0.46875,-0.23438 0.11328,-0.15625 0.17188,-0.36719 0.17188,-0.64062 v -1.4688 h 0.95312 v 2.9844 h -0.95312 v -0.4375 c -0.14844,0.17969 -0.30469,0.30859 -0.46875,0.39062 -0.15625,0.082031 -0.33594,0.125 -0.53125,0.125 -0.34375,0 -0.60938,-0.10156 -0.79688,-0.3125 -0.17969,-0.21875 -0.26562,-0.53125 -0.26562,-0.9375 z"
         id="path1856" />
    </symbol>
    <symbol
       id="s"
       overflow="visible">
      <path
         d="m 2.4219,-4.1562 v 0.625 H 1.90628 c -0.13672,0 -0.23438,0.027344 -0.29688,0.078125 -0.054687,0.054687 -0.078125,0.13672 -0.078125,0.25 v 0.21875 h 0.82812 v 0.67188 h -0.82812 v 2.3125 h -0.95312 v -2.3125 h -0.46875 v -0.67188 h 0.46875 v -0.21875 c 0,-0.32031 0.085937,-0.5625 0.26562,-0.71875 0.1875,-0.15625 0.47266,-0.23438 0.85938,-0.23438 z"
         id="path1859" />
    </symbol>
    <symbol
       id="r"
       overflow="visible">
      <path
         d="m 3.2344,-2.5 c 0.11328,-0.17578 0.25391,-0.3125 0.42188,-0.40625 0.16406,-0.10156 0.35156,-0.15625 0.5625,-0.15625 0.33203,0 0.58594,0.10938 0.76562,0.32812 0.1875,0.21094 0.28125,0.51172 0.28125,0.90625 V -3e-5 H 4.2969 v -1.5625 c 0.00781,-0.019531 0.015625,-0.039062 0.015625,-0.0625 v -0.10938 c 0,-0.21875 -0.03125,-0.375 -0.09375,-0.46875 -0.0625,-0.09375 -0.16406,-0.14062 -0.29688,-0.14062 -0.1875,0 -0.33594,0.078125 -0.4375,0.23438 -0.09375,0.14844 -0.14062,0.35938 -0.14062,0.64062 V 2e-5 h -0.96875 v -1.5625 c 0,-0.33203 -0.03125,-0.54688 -0.09375,-0.64062 -0.054688,-0.09375 -0.15234,-0.14062 -0.29688,-0.14062 -0.17969,0 -0.32031,0.078125 -0.42188,0.23438 -0.09375,0.14844 -0.14062,0.35938 -0.14062,0.64062 V 8e-5 h -0.96875 v -2.9844 h 0.96875 v 0.4375 c 0.11328,-0.17578 0.24219,-0.30469 0.39062,-0.39062 0.15625,-0.082031 0.32812,-0.125 0.51562,-0.125 0.20703,0 0.39062,0.054688 0.54688,0.15625 0.15625,0.09375 0.27344,0.23047 0.35938,0.40625 z"
         id="path1862" />
    </symbol>
    <symbol
       id="q"
       overflow="visible">
      <path
         d="M 3.4688,-1.8281 V 0 H 2.50005 v -1.3906 c 0,-0.25781 -0.00781,-0.4375 -0.015625,-0.53125 -0.011719,-0.10156 -0.03125,-0.17578 -0.0625,-0.21875 -0.03125,-0.0625 -0.085937,-0.10938 -0.15625,-0.14062 -0.0625,-0.039062 -0.13281,-0.0625 -0.20312,-0.0625 -0.21094,0 -0.37109,0.078125 -0.48438,0.23438 -0.10547,0.15625 -0.15625,0.37109 -0.15625,0.64062 V 8e-5 h -0.96875 v -4.1562 h 0.96875 v 1.6094 c 0.13281,-0.17578 0.28516,-0.30469 0.45312,-0.39062 0.16406,-0.082031 0.34375,-0.125 0.53125,-0.125 0.34375,0 0.60156,0.10938 0.78125,0.32812 0.1875,0.21094 0.28125,0.51172 0.28125,0.90625 z"
         id="path1865" />
    </symbol>
    <symbol
       id="p"
       overflow="visible">
      <path
         d="M 0.5,-3.9844 H 1.6562 L 3.0937,-1.25 V -3.9844 H 4.07808 V 0 H 2.92188 L 1.48438,-2.7344 V 0 H 0.5 Z"
         id="path1868" />
    </symbol>
    <symbol
       id="o"
       overflow="visible">
      <path
         d="m 0.5,-3.9844 h 1.7031 c 0.50781,0 0.89844,0.11719 1.1719,0.34375 0.26953,0.21875 0.40625,0.53906 0.40625,0.95312 0,0.41797 -0.13672,0.74219 -0.40625,0.96875 -0.27344,0.21875 -0.66406,0.32812 -1.1719,0.32812 H 1.53122 V -6e-5 h -1.0312 z m 1.0312,0.75 v 1.1094 h 0.5625 c 0.19531,0 0.34766,-0.046875 0.45312,-0.14062 C 2.6601,-2.36718 2.7187,-2.50781 2.7187,-2.6875 2.7187,-2.86328 2.660106,-3 2.54682,-3.09375 2.44135,-3.1875 2.28901,-3.23437 2.0937,-3.23437 Z"
         id="path1871" />
    </symbol>
    <symbol
       id="n"
       overflow="visible">
      <path
         d="m 0.45312,-2.9844 h 0.96875 v 2.9375 c 0,0.39453 -0.10156,0.69531 -0.29688,0.90625 C 0.93749,1.0781 0.66015,1.18747 0.29687,1.18747 H -0.18751 V 0.54685 h 0.17188 c 0.17578,0 0.29688,-0.042969 0.35938,-0.125 C 0.414062,0.347631 0.45313,0.19138 0.45313,-0.0469 Z m 0,-1.1719 h 0.96875 v 0.78125 H 0.45312 Z"
         id="path1874" />
    </symbol>
    <symbol
       id="m"
       overflow="visible">
      <path
         d="m 2.875,-2.8906 v 0.76562 C 2.75,-2.207011 2.61719,-2.26951 2.48438,-2.31248 2.34766,-2.351542 2.21094,-2.37498 2.07813,-2.37498 c -0.27344,0 -0.48047,0.078125 -0.625,0.23438 -0.14844,0.15625 -0.21875,0.37109 -0.21875,0.64062 0,0.28125 0.070313,0.5 0.21875,0.65625 0.14453,0.15625 0.35156,0.23438 0.625,0.23438 0.14453,0 0.28516,-0.019531 0.42188,-0.0625 0.13281,-0.039063 0.25781,-0.10938 0.375,-0.20312 v 0.78125 c -0.14844,0.0625 -0.29688,0.10156 -0.45312,0.125 -0.15625,0.03125 -0.3125,0.046875 -0.46875,0.046875 -0.54297,0 -0.96484,-0.13281 -1.2656,-0.40625 -0.30469,-0.28125 -0.45312,-0.67188 -0.45312,-1.1719 0,-0.48828 0.14844,-0.86719 0.45312,-1.1406 0.30078,-0.28125 0.72266,-0.42188 1.2656,-0.42188 0.15625,0 0.3125,0.015625 0.46875,0.046875 0.15625,0.023437 0.30469,0.0625 0.45312,0.125 z"
         id="path1877" />
    </symbol>
  </defs>
  <path
     d="m 235.71335,123.99689 c 7.4375,0 13.562,-6.125 13.562,-13.562 -0.76562,-17.937996 -26.359,-17.937996 -27.125,0 0,7.4375 6.125,13.562 13.562,13.562 z"
     id="path1882" />
  <path
     d="m 328.79335,356.08689 c -1.6406,-10.062 -2.8438,-17.281 -3.9375,-24.5 66.609,-69.125 66.719,-184.52 1.3125,-254.079996 9.4062,0.76562 19.359,5.0312 29.969,12.688 2.8438,2.0781 6.7812,1.5312 8.9688,-1.0938 2.1875,-2.7344 1.9688,-6.6719 -0.65625,-8.9688 -23.406,-21.438 -25.375,-43.641 -6.2344,-69.672 2.0781,-2.8437998 1.5312,-6.7811998 -1.0938,-8.9687998 -2.7344,-2.18750002 -6.6719,-1.96880002 -8.9688,0.65625 -21.438,23.2969998 -43.641,25.2659998 -69.781,6.2344 -6.6719,-4.7031 -14.219,4.3749998 -8.3125,10.1719998 9.625,8.8594 15.531,17.828 17.938,27.016 -188.999999,-112.44 -382.379999,121.079996 -237.229999,285.909996 -3.5,21.109 -12.469,76.453 -15.422,87.609 -1.9688,6.8906 2.5156,19.359 11.266,30.953 46.922,69.344 235.269999,69.234 282.079999,0 8.75,-11.594 13.234,-24.062 11.266,-30.953 -1.2031,-4.5938 -5.6875,-29.312 -11.156,-63 z m -266.549999,-13.344 c 68.140999,64.094 183.089999,63.984 251.019999,0.10938 0.54688,3.6094 1.3125,7.875 2.0781,12.469 -14.328,21.109 -49.328,53.812 -127.53,53.812 -34.125,0 -95.811999,-7.1094 -127.639999,-54.031 0.76562,-4.5938 1.4219,-8.75 2.0781,-12.359 z m 251.449999,-18.484 c -109.16,112.66 -298.159999,36.422 -300.019999,-118.78 16.406,-33.25 57.203,-67.594 90.890999,-50.203 23.078,12.578 36.094,43.969 18.594,63.656 -9.4062,9.8438 -23.078,8.75 -30.405999,2.625 -2.2969,-1.8594 -9.5156,-8.75 -3.9375,-18.047 1.8594,-3.0625 0.875,-7.1094 -2.2969,-8.9688 -3.0625,-1.8594 -7.1094,-0.875 -8.9688,2.2969 -7.1094,11.922 -4.2656,26.031 7,35 12.906,10.281 32.046999,10.391 45.499999,-1.4219 23.953,-2.9531 40.906,7.9844 43.203,32.047 -15.531,26.578 -0.76562,67.156 31.281,68.031 30.734,0.21875 39.484,-43.641 9.7344,-48.781 -3.6094,-0.4375 -6.8906,2.0781 -7.3281,5.6875 -0.4375,3.6094 2.0781,6.8906 5.6875,7.3281 6.125,0.76562 6.7812,6.125 6.8906,8.4219 0.10938,5.7969 -3.8281,12.688 -12.578,14 -5.7969,0.875 -12.25,-1.5312 -17.391,-6.5625 -7.2188,-7.1094 -10.5,-17.828 -8.9688,-29.531 4.5938,-31.172 49.984,-48.562 77,-25.047 15.641,13.234 20.344,34.234 20.344,34.453 0.65625,3.0625 3.3906,5.25 6.4531,5.25 4.0469,0 7.3281,-3.9375 6.4531,-7.875 -0.21875,-0.98438 -5.0312,-23.188 -21.984,-39.266 14.328,-35.656 50.859,-56.109 92.969,-51.953 2.1875,47.25 -15.094,93.188 -48.125,127.64 z m 2.625,-290.169996 c 6.0156,-0.54688 12.031,-2.2969 17.828,-5.0312 -3.5,12.797 -2.5156,25.266 3.2812,37.188 -12.906,-3.5 -25.484,-2.4062 -37.188,3.2812 3.5,-12.578 2.5156,-25.375 -3.2812,-37.297 6.5625,1.8594 13.016,2.4062 19.359,1.8594 z m -249.699999,44.406 c 57.968999,-57.75 156.079999,-65.188 221.919999,-16.844 -1.4219,8.3125 -5.5781,17.281 -12.359,26.578 -2.0781,2.8438 -1.5312,6.7812 1.2031,8.9688 2.7343,2.1876 6.6719,1.8594 8.9688,-0.65625 7.6562,-8.3125 15.641,-14 23.625,-16.953 28.219,27.671996 46.156,64.093996 50.75,103.469996 -45.828,-3.6094 -85.641,18.484 -102.7,56.984 -23.078,-14.219 -55.344,-9.2969 -74.156,8.8594 -6.125,-20.016 -22.75,-31.5 -43.75,-32.156 11.812,-27.016 -2.5156,-57.859 -28.984,-72.953 -33.140999,-18.266 -72.952999,4.8125 -95.593999,34.125 5.4688,-36.531 22.531,-71.75 51.078,-99.421996 z M 314.45835,446.76489 c -49,60.594 -244.779999,58.844 -266.439999,-24.281 1.5312,-5.3594 5.0312,-25.703 9.1875,-49.766 61.468999,72.844 216.339999,59.281 261.079999,0.21875 3.0625,18.047 7.4375,43.531 9.0781,49.547 0.21875,2.4062 -2.4062,12.359 -12.906,24.281 z"
     id="path1884" />
  <path
     d="m 109.82335,125.52689 c 27.891,-30.624996 85.094,-11.484 84.438,31.609 -0.10938,7.1094 -1.3125,14 -3.6094,20.453 -2.625,8.2031 9.1875,12.469 12.359,4.2656 2.1875,-6.2344 3.5,-12.688 4.0469,-19.359 18.812,-3.5 30.844,2.7344 38.609,19.906 1.4219,3.0625 4.8125,4.5938 7.9844,3.5 10.391,-3.2812 18.047,-1.4219 24.391,6.0156 2.2969,2.7344 6.4531,3.1719 9.2969,0.76562 2.7344,-2.2969 3.1719,-6.4531 0.76562,-9.2969 -8.5312,-10.172 -19.797,-14.109 -32.922,-11.594 -10.172,-18.594 -26.469,-26.25 -48.344,-22.75 -6.0156,-50.311996 -73.281,-69.561996 -106.64,-32.703 -5.687499,6.7812 3.5,15.312 9.625,9.1875 z"
     id="path1886" />
  <path
     d="m 171.51335,83.416894 c 10.719,1.8594 21.328,-5.5781 23.078,-16.625 1.75,-10.938 -5.6875,-21.328 -16.625,-23.078 -10.609,-1.9688 -21.547,5.9062 -23.078,16.625 -1.9688,10.609 5.9062,21.547 16.625,23.078 z m -3.7188,-21 c 0.65625,-3.8281 4.2656,-6.4531 7.9844,-5.7969 9.0781,1.8594 7,14.984 -2.2969,13.781 -3.6094,-0.4375 -6.3438,-4.2656 -5.6875,-7.9844 z"
     id="path1888" />
</svg>
